<?xml version="1.0" encoding="utf-8"?>
<!-- Generator: Adobe Illustrator 12.0.0, SVG Export Plug-In . SVG Version: 6.00 Build 51448)  -->
<!DOCTYPE svg PUBLIC "-//W3C//DTD SVG 1.0//EN" "http://www.w3.org/TR/2001/REC-SVG-20010904/DTD/svg10.dtd" [
	<!ENTITY ns_svg "http://www.w3.org/2000/svg">
	<!ENTITY ns_xlink "http://www.w3.org/1999/xlink">
]>
<svg  version="1.0" id="Layer_1" xmlns="&ns_svg;" xmlns:xlink="&ns_xlink;" width="798.584" height="266.861"
	 viewBox="0 0 798.584 266.861" overflow="visible" enable-background="new 0 0 798.584 266.861" xml:space="preserve">
<path id="rect10188" fill="#ffffff" fill-opacity="1" stroke="#010101" d="M678.446,106.845h53.172v53.172h-53.172V106.845z"/>
<path id="rect10196" fill="#ffffff" fill-opacity="1" stroke="#010101" d="M66.965,160.017h53.172v53.172H66.965V160.017z"/>
<path id="rect2186" fill="#ffffff" fill-opacity="1" stroke="#010101" d="M0.5,0.5h53.172v53.173H0.5V0.5z"/>
<path id="rect2218" fill="#ffffff" fill-opacity="1" stroke="#010101" d="M53.672,0.5h53.172v53.173H53.672V0.5z"/>
<path id="rect2222" fill="#ffffff" fill-opacity="1" stroke="#010101" d="M106.844,0.5h53.172v53.173h-53.172V0.5z"/>
<path id="rect2228" fill="#ffffff" fill-opacity="1" stroke="#010101" d="M160.017,0.5h53.172v53.173h-53.172V0.5z"/>
<path id="rect2230" fill="#ffffff" fill-opacity="1" stroke="#010101" d="M213.189,0.5h53.171v53.173h-53.171V0.5z"/>
<path id="rect2232" fill="#ffffff" fill-opacity="1" stroke="#010101" d="M266.36,0.5h53.172v53.173H266.36V0.5z"/>
<path id="rect2234" fill="#ffffff" fill-opacity="1" stroke="#010101" d="M319.533,0.5h53.173v53.173h-53.173V0.5z"/>
<path id="rect2236" fill="#ffffff" fill-opacity="1" stroke="#010101" d="M372.706,0.5h53.171v53.173h-53.171V0.5z"/>
<path id="rect2238" fill="#ffffff" fill-opacity="1" stroke="#010101" d="M425.877,0.5h53.172v53.173h-53.172V0.5z"/>
<path id="rect2240" fill="#ffffff" fill-opacity="1" stroke="#010101" d="M479.049,0.5h53.172v53.173h-53.172V0.5z"/>
<path id="rect2242" fill="#ffffff" fill-opacity="1" stroke="#010101" d="M532.221,0.5h53.175v53.173h-53.175V0.5z"/>
<path id="rect2244" fill="#ffffff" fill-opacity="1" stroke="#010101" d="M585.396,0.5h53.172v53.173h-53.172V0.5z"/>
<path id="rect2246" fill="#ffffff" fill-opacity="1" stroke="#010101" d="M638.567,0.5h53.172v53.173h-53.172V0.5z"/>
<path id="rect2248" fill="#dfdfdf" fill-opacity="1" stroke="#010101" d="M691.739,0.5h106.345v53.173H691.739V0.5z"/>
<path id="rect2250" fill="#dfdfdf" fill-opacity="1" stroke="#010101" d="M0.5,53.673h79.758v53.172H0.5V53.673z"/>
<path id="rect2252" fill="#ffffff" fill-opacity="1" stroke="#010101" d="M80.258,53.673h53.172v53.172H80.258V53.673z"/>
<path id="rect2254" fill="#ffffff" fill-opacity="1" stroke="#010101" d="M133.431,53.673h53.172v53.172h-53.172V53.673z"/>
<path id="rect2256" fill="#ffffff" fill-opacity="1" stroke="#010101" d="M186.603,53.673h53.172v53.172h-53.172V53.673z"/>
<path id="rect2258" fill="#ffffff" fill-opacity="1" stroke="#010101" d="M239.775,53.673h53.172v53.172h-53.172V53.673z"/>
<path id="rect2262" fill="#ffffff" fill-opacity="1" stroke="#010101" d="M292.947,53.673h53.172v53.172h-53.172V53.673z"/>
<path id="rect2264" fill="#ffffff" fill-opacity="1" stroke="#010101" d="M346.119,53.673h53.172v53.172h-53.172V53.673z"/>
<path id="rect2266" fill="#ffffff" fill-opacity="1" stroke="#010101" d="M399.291,53.673h53.172v53.172h-53.172V53.673z"/>
<path id="rect2270" fill="#ffffff" fill-opacity="1" stroke="#010101" d="M452.463,53.673h53.172v53.172h-53.172V53.673z"/>
<path id="rect2272" fill="#ffffff" fill-opacity="1" stroke="#010101" d="M505.635,53.673h53.173v53.172h-53.173V53.673z"/>
<path id="rect2274" fill="#ffffff" fill-opacity="1" stroke="#010101" d="M558.808,53.673h53.174v53.172h-53.174V53.673z"/>
<path id="rect2278" fill="#ffffff" fill-opacity="1" stroke="#010101" d="M611.981,53.673h53.172v53.172h-53.172V53.673z"/>
<path id="rect2280" fill="#ffffff" fill-opacity="1" stroke="#010101" d="M665.153,53.673h53.172v53.172h-53.172V53.673z"/>
<path id="rect2286" fill="#dfdfdf" fill-opacity="1" stroke="#010101" d="M0.5,106.845h93.051v53.172H0.5V106.845z"/>
<path id="rect2292" fill="#ffffff" fill-opacity="1" stroke="#010101" d="M93.551,106.845h53.172v53.172H93.551V106.845z"/>
<path id="rect2296" fill="#ffffff" fill-opacity="1" stroke="#010101" d="M146.724,106.845h53.172v53.172h-53.172V106.845z"/>
<path id="rect2298" fill="#ffffff" fill-opacity="1" stroke="#010101" d="M199.896,106.845h53.172v53.172h-53.172V106.845z"/>
<path id="rect2300" fill="#ffffff" fill-opacity="1" stroke="#010101" d="M253.068,106.845h53.172v53.172h-53.172V106.845z"/>
<path id="rect2302" fill="#ffffff" fill-opacity="1" stroke="#010101" d="M306.24,106.845h53.172v53.172H306.24V106.845z"/>
<path id="rect2306" fill="#ffffff" fill-opacity="1" stroke="#010101" d="M359.412,106.845h53.172v53.172h-53.172V106.845z"/>
<path id="rect2308" fill="#ffffff" fill-opacity="1" stroke="#010101" d="M412.584,106.845h53.172v53.172h-53.172V106.845z"/>
<path id="rect2312" fill="#ffffff" fill-opacity="1" stroke="#010101" d="M465.756,106.845h53.172v53.172h-53.172V106.845z"/>
<path id="rect2314" fill="#ffffff" fill-opacity="1" stroke="#010101" d="M518.928,106.845h53.173v53.172h-53.173V106.845z"/>
<path id="rect2316" fill="#ffffff" fill-opacity="1" stroke="#010101" d="M572.101,106.845h53.174v53.172h-53.174V106.845z"/>
<path id="rect2318" fill="#ffffff" fill-opacity="1" stroke="#010101" d="M625.274,106.845h53.172v53.172h-53.172V106.845z"/>
<path id="rect2320" fill="#dfdfdf" fill-opacity="1" stroke="#010101" stroke-width="1" d="M731.618,106.845h-13.293V53.673
	h79.759v106.344h-66.563L731.618,106.845z"/>
<path id="rect2322" fill="#dfdfdf" fill-opacity="1" stroke="#010101" stroke-width="1" d="M0.5,160.017h66.467v53.172H0.5
	V160.017z"/>
<path id="rect2324" fill="#ffffff" fill-opacity="1" stroke="#010101" d="M120.138,160.017h53.172v53.172h-53.172V160.017z"/>
<path id="rect2326" fill="#ffffff" fill-opacity="1" stroke="#010101" d="M173.31,160.017h53.172v53.172H173.31V160.017z"/>
<path id="rect2330" fill="#ffffff" fill-opacity="1" stroke="#010101" d="M226.482,160.017h53.172v53.172h-53.172V160.017z"/>
<path id="rect2334" fill="#ffffff" fill-opacity="1" stroke="#010101" d="M279.654,160.017h53.172v53.172h-53.172V160.017z"/>
<path id="rect2336" fill="#ffffff" fill-opacity="1" stroke="#010101" d="M332.826,160.017h53.172v53.172h-53.172V160.017z"/>
<path id="rect2338" fill="#ffffff" fill-opacity="1" stroke="#010101" d="M385.999,160.017h53.171v53.172h-53.171V160.017z"/>
<path id="rect2340" fill="#ffffff" fill-opacity="1" stroke="#010101" d="M439.17,160.017h53.172v53.172H439.17V160.017z"/>
<path id="rect2342" fill="#ffffff" fill-opacity="1" stroke="#010101" d="M492.342,160.017h53.173v53.172h-53.173V160.017z"/>
<path id="rect2344" fill="#ffffff" fill-opacity="1" stroke="#010101" d="M545.515,160.017h53.174v53.172h-53.174V160.017z"/>
<path id="rect2346" fill="#ffffff" fill-opacity="1" stroke="#010101" d="M598.688,160.017h53.172v53.172h-53.172V160.017z"/>
<path id="rect2348" fill="#dfdfdf" fill-opacity="1" stroke="#010101" d="M651.86,160.017h146.224v53.172H651.86V160.017z"/>
<path id="rect2350" fill="#dfdfdf" fill-opacity="1" stroke="#010101" d="M0.5,213.188h79.758v53.173H0.5V213.188z"/>
<path id="rect2352" fill="#dfdfdf" fill-opacity="1" stroke="#010101" d="M718.325,213.188h79.759v53.173h-79.759V213.188z"/>
<path id="rect2354" fill="#dfdfdf" fill-opacity="1" stroke="#010101" d="M133.431,213.188h79.758v53.173h-79.758V213.188z"/>
<path id="rect2360" fill="#dfdfdf" fill-opacity="1" stroke="#010101" d="M532.221,213.188h79.761v53.173h-79.761V213.188z"/>
<path id="rect2362" fill="#ffffff" fill-opacity="1" stroke="#010101" d="M213.189,213.188h319.032v53.173H213.189V213.188z"/>
<path id="rect2364" fill="#efefef" fill-opacity="1" stroke="#010101" d="M80.258,213.188h53.172v53.173H80.258V213.188z"/>
<path id="rect2366" fill="#efefef" fill-opacity="1" stroke="#010101" d="M611.981,213.188h53.172v53.173h-53.172V213.188z"/>
<path id="rect2368" fill="#efefef" fill-opacity="1" stroke="#010101" d="M665.153,213.188h53.172v53.173h-53.172V213.188z"/>
<path id="flowRoot4146" fill="#efefef" fill-opacity="1" stroke="#010101" d="M0.5,0.5"/>
<path id="text5091" fill="#010101" d="M67.277,17.184l-0.81-6.885V6.145h3.199v4.154l-0.81,6.885H67.277 M66.508,21.442v-3.064
	h3.084v3.064H66.508 M67.277,48.028V37.861h-3.552v-2.087h0.229c1.294,0,2.236-0.201,2.825-0.603
	c0.595-0.401,0.945-1.073,1.049-2.015h2.378v14.872H67.277"/>
<path id="text5127" fill="#010101" d="M120.646,6.508h1.994v5.805h-1.994V6.508 M117.26,6.508h1.994v5.805h-1.994V6.508
	 M114.435,48.028c0.014-1.329,0.298-2.455,0.852-3.375c0.554-0.928,1.537-1.866,2.95-2.814c0.214-0.146,0.526-0.346,0.935-0.603
	c1.869-1.198,2.804-2.351,2.804-3.458c0-0.658-0.197-1.177-0.592-1.558s-0.935-0.571-1.62-0.571c-0.748,0-1.326,0.236-1.734,0.707
	c-0.401,0.464-0.603,1.128-0.603,1.994v0.125h-2.741c0-1.704,0.457-3.015,1.371-3.936s2.215-1.381,3.905-1.381
	c1.53,0,2.752,0.419,3.666,1.256c0.914,0.831,1.371,1.939,1.371,3.323c0,0.99-0.239,1.849-0.717,2.576s-1.402,1.554-2.773,2.482
	c-0.291,0.201-0.692,0.464-1.205,0.79c-1.302,0.838-2.036,1.475-2.202,1.911h6.75v2.534H114.435"/>
<path id="path2623" fill="#010101" d="M169.703,18.998c0.831-0.575,1.419-1.104,1.766-1.589c0.353-0.484,0.53-1.004,0.53-1.558
	c0-0.263-0.042-0.54-0.125-0.831c-0.083-0.297-0.205-0.609-0.364-0.935h-1.828v-1.153h1.122c-0.305-0.602-0.526-1.139-0.665-1.609
	c-0.139-0.471-0.208-0.911-0.208-1.319c0-1.232,0.45-2.229,1.35-2.991c0.907-0.762,2.102-1.143,3.583-1.143
	c1.606,0,2.866,0.412,3.78,1.236c0.914,0.824,1.413,1.994,1.496,3.51h-2.866c-0.056-0.782-0.281-1.381-0.675-1.796
	s-0.935-0.623-1.62-0.623c-0.651,0-1.153,0.169-1.506,0.509c-0.346,0.339-0.519,0.827-0.519,1.464c0,0.367,0.218,1.031,0.654,1.994
	c0.152,0.333,0.267,0.589,0.343,0.769h2.959v1.153h-2.534c0.062,0.263,0.107,0.505,0.135,0.727s0.042,0.426,0.042,0.613
	c0,0.499-0.156,0.997-0.467,1.496c-0.305,0.491-0.824,1.069-1.558,1.734c0.45-0.208,0.855-0.36,1.215-0.457
	c0.367-0.104,0.699-0.156,0.997-0.156c0.36,0,0.852,0.083,1.475,0.249c0.623,0.159,1.066,0.239,1.329,0.239
	c0.347,0,0.686-0.055,1.018-0.166c0.339-0.111,0.675-0.28,1.007-0.509l0.914,2.253c-0.575,0.339-1.125,0.596-1.651,0.769
	c-0.526,0.18-1.018,0.27-1.475,0.27c-0.526,0-1.239-0.139-2.14-0.416c-0.893-0.277-1.541-0.416-1.942-0.416
	c-0.422,0-0.834,0.069-1.236,0.208c-0.395,0.138-0.779,0.346-1.153,0.623L169.703,18.998"/>
<path id="text5139" fill="#010101" d="M168.948,43.5h2.856c0.007,0.831,0.208,1.457,0.603,1.879
	c0.395,0.416,0.979,0.623,1.755,0.623c0.748,0,1.322-0.194,1.724-0.582c0.408-0.395,0.613-0.958,0.613-1.692
	s-0.239-1.288-0.717-1.662c-0.471-0.381-1.173-0.571-2.108-0.571c-0.048,0-0.125,0.003-0.228,0.01
	c-0.097,0.007-0.17,0.01-0.218,0.01V39.46h0.322c0.859,0,1.492-0.166,1.901-0.499c0.415-0.339,0.623-0.855,0.623-1.547
	c0-0.575-0.177-1.028-0.53-1.36c-0.346-0.339-0.82-0.509-1.423-0.509c-0.658,0-1.167,0.194-1.526,0.582
	c-0.36,0.388-0.54,0.938-0.54,1.651v0.125h-2.804c0.035-1.523,0.481-2.69,1.34-3.5c0.865-0.817,2.084-1.226,3.655-1.226
	c1.489,0,2.669,0.364,3.542,1.091c0.873,0.727,1.309,1.707,1.309,2.939c0,0.651-0.149,1.222-0.447,1.713
	c-0.297,0.492-0.744,0.896-1.339,1.215c0.761,0.332,1.336,0.792,1.724,1.381c0.395,0.582,0.592,1.277,0.592,2.087
	c0,1.489-0.488,2.669-1.464,3.542c-0.977,0.873-2.309,1.309-3.999,1.309c-1.668,0-2.956-0.422-3.863-1.267
	c-0.9-0.852-1.35-2.06-1.35-3.625V43.5"/>
<path id="text5145" fill="#010101" d="M226.004,19.511c0.568-0.076,1-0.281,1.298-0.613c0.298-0.333,0.447-0.775,0.447-1.33
	c0-0.491-0.142-0.896-0.426-1.215c-0.277-0.326-0.717-0.578-1.319-0.758V19.511 M224.768,12.407V8.876
	c-0.54,0.069-0.952,0.256-1.236,0.561c-0.284,0.297-0.426,0.699-0.426,1.205c0,0.422,0.132,0.775,0.395,1.059
	C223.771,11.985,224.194,12.22,224.768,12.407 M224.768,23.779v-1.994c-1.564-0.097-2.734-0.55-3.51-1.36
	c-0.776-0.81-1.164-1.98-1.164-3.51h2.783c0.035,0.748,0.208,1.34,0.52,1.776c0.318,0.429,0.775,0.703,1.371,0.821v-4.3
	c-1.606-0.408-2.749-0.941-3.427-1.599c-0.679-0.658-1.018-1.558-1.018-2.7c0-1.267,0.402-2.288,1.205-3.063
	c0.81-0.775,1.89-1.181,3.24-1.215V5.304h1.236v1.329c1.35,0.069,2.403,0.478,3.157,1.226c0.755,0.741,1.17,1.786,1.246,3.136
	h-2.825c-0.048-0.644-0.204-1.135-0.467-1.475c-0.256-0.346-0.626-0.54-1.111-0.582v3.78c1.71,0.533,2.915,1.142,3.614,1.828
	s1.049,1.589,1.049,2.71c0,1.322-0.408,2.378-1.226,3.167c-0.81,0.79-1.956,1.25-3.438,1.381v1.973H224.768 M226.17,42.524v-6.366
	l-4.04,6.366H226.17 M226.108,48.028v-3.209h-6.272v-2.617l5.483-8.62h3.687v8.869h1.724v2.368h-1.724v3.209H226.108"/>
<path id="text5151" fill="#010101" d="M284.462,17.994c0,0.464,0.156,0.855,0.467,1.174c0.312,0.312,0.696,0.467,1.153,0.467
	c0.443,0,0.824-0.159,1.143-0.478c0.318-0.325,0.478-0.713,0.478-1.163c0-0.443-0.159-0.82-0.478-1.132
	c-0.312-0.318-0.692-0.478-1.143-0.478c-0.457,0-0.841,0.156-1.153,0.467C284.618,17.157,284.462,17.537,284.462,17.994
	 M282.208,17.994c0-1.08,0.374-1.99,1.122-2.731c0.748-0.741,1.665-1.111,2.752-1.111c1.066,0,1.973,0.377,2.721,1.132
	c0.755,0.748,1.132,1.651,1.132,2.71c0,1.066-0.377,1.98-1.132,2.742c-0.754,0.755-1.662,1.132-2.721,1.132
	c-1.087,0-2.004-0.374-2.752-1.122C282.582,19.999,282.208,19.081,282.208,17.994 M276.175,21.868l8.869-15.297h1.672l-8.869,15.297
	H276.175 M275.261,10.444c0,0.457,0.152,0.841,0.457,1.153c0.312,0.312,0.696,0.467,1.153,0.467c0.45,0,0.831-0.156,1.142-0.467
	c0.318-0.319,0.478-0.703,0.478-1.153c0-0.443-0.159-0.82-0.478-1.132c-0.312-0.319-0.692-0.478-1.142-0.478
	c-0.457,0-0.841,0.156-1.153,0.467C275.413,9.606,275.261,9.987,275.261,10.444 M273.007,10.444c0-1.08,0.374-1.994,1.122-2.742
	c0.748-0.755,1.662-1.132,2.742-1.132c1.066,0,1.973,0.38,2.721,1.142c0.754,0.755,1.132,1.665,1.132,2.731
	c0,1.066-0.377,1.977-1.132,2.731c-0.748,0.748-1.655,1.122-2.721,1.122c-1.087,0-2.004-0.371-2.752-1.111
	C273.377,12.445,273.007,11.531,273.007,10.444 M275.977,44.03h2.908c0.048,0.651,0.267,1.156,0.654,1.517
	c0.388,0.353,0.907,0.529,1.558,0.529c0.803,0,1.416-0.235,1.838-0.706c0.429-0.471,0.644-1.146,0.644-2.025
	c0-0.824-0.218-1.471-0.654-1.942c-0.436-0.478-1.039-0.716-1.807-0.716c-0.43,0-0.807,0.086-1.132,0.26
	c-0.325,0.173-0.602,0.429-0.831,0.768l-2.68-0.156l0.966-7.976h8.547v2.513h-6.449l-0.384,2.98
	c0.325-0.256,0.699-0.446,1.122-0.571c0.422-0.131,0.893-0.197,1.412-0.197c1.482,0,2.676,0.45,3.583,1.35
	c0.914,0.9,1.371,2.081,1.371,3.542c0,1.599-0.502,2.876-1.506,3.832c-1.004,0.949-2.351,1.423-4.04,1.423
	c-1.537,0-2.763-0.391-3.676-1.173C276.514,46.491,276.033,45.408,275.977,44.03"/>
<path id="path2659" fill="#010101" d="M330.926,14.765l-0.789,0.571c-0.319,0.221-0.558,0.488-0.717,0.799s-0.239,0.661-0.239,1.049
	c0,0.589,0.201,1.083,0.602,1.485c0.402,0.401,0.904,0.602,1.506,0.602c0.443,0,0.866-0.09,1.267-0.27
	c0.409-0.187,0.786-0.457,1.132-0.81L330.926,14.765 M331.756,11.493l0.364-0.26c0.332-0.229,0.578-0.484,0.737-0.769
	c0.159-0.284,0.239-0.609,0.239-0.976c0-0.353-0.111-0.633-0.332-0.841c-0.215-0.208-0.509-0.312-0.883-0.312
	c-0.381,0-0.682,0.107-0.904,0.322c-0.221,0.208-0.332,0.491-0.332,0.852c0,0.194,0.052,0.405,0.156,0.633
	c0.111,0.229,0.267,0.471,0.467,0.727L331.756,11.493 M329.42,12.875l-0.603-0.79c-0.312-0.415-0.536-0.803-0.675-1.163
	c-0.132-0.367-0.197-0.751-0.197-1.153c0-1.107,0.353-1.987,1.059-2.638c0.713-0.658,1.679-0.986,2.897-0.986
	c1.17,0,2.094,0.301,2.773,0.903s1.018,1.416,1.018,2.44c0,0.775-0.201,1.471-0.602,2.087c-0.395,0.609-1.018,1.184-1.87,1.724
	l2.191,2.7c0.208-0.339,0.371-0.72,0.488-1.143c0.125-0.422,0.211-0.893,0.26-1.412h2.7c-0.076,0.9-0.263,1.734-0.561,2.502
	s-0.706,1.471-1.226,2.108l2.783,3.386h-3.531l-1.039-1.277c-0.609,0.561-1.281,0.986-2.015,1.277
	c-0.727,0.284-1.489,0.426-2.285,0.426c-1.413,0-2.569-0.419-3.469-1.257c-0.893-0.838-1.34-1.907-1.34-3.209
	c0-0.969,0.249-1.804,0.748-2.503S328.257,13.525,329.42,12.875"/>
<path id="text5163" fill="#010101" d="M385.697,48.028h-3.105c0.111-2.029,0.599-4.04,1.464-6.034
	c0.872-1.994,2.115-3.954,3.728-5.878h-7.311v-2.534h10.54v2.233c-1.634,1.8-2.89,3.704-3.769,5.712
	C386.372,43.535,385.856,45.702,385.697,48.028"/>
<path id="path2674" fill="#010101" d="M677.517,65.382l-1.827,2.576l-1.766-1.236l1.994-2.503l-2.908-0.81l0.675-2.108l2.794,0.997
	v-2.98h2.057v2.98l2.793-0.976l0.696,2.108l-2.908,0.789l1.974,2.482l-1.808,1.298L677.517,65.382"/>
<path id="path2672" fill="#010101" d="M435.515,43.708c0,0.727,0.2,1.288,0.602,1.683c0.409,0.395,0.99,0.592,1.745,0.592
	c0.72,0,1.284-0.201,1.692-0.603c0.416-0.401,0.623-0.958,0.623-1.672c0-0.686-0.211-1.236-0.633-1.651
	c-0.423-0.415-0.983-0.623-1.683-0.623s-1.267,0.211-1.703,0.634C435.729,42.49,435.515,43.037,435.515,43.708 M435.753,37.332
	c0,0.575,0.18,1.018,0.54,1.329c0.36,0.305,0.876,0.457,1.548,0.457c0.671,0,1.188-0.156,1.547-0.467
	c0.367-0.312,0.551-0.751,0.551-1.319c0-0.554-0.188-0.99-0.561-1.309c-0.374-0.318-0.887-0.478-1.537-0.478
	c-0.638,0-1.146,0.163-1.527,0.488C435.94,36.359,435.753,36.792,435.753,37.332 M434.684,40.219
	c-0.623-0.346-1.073-0.751-1.351-1.215c-0.276-0.464-0.415-1.056-0.415-1.776c0-1.274,0.437-2.274,1.309-3.001
	c0.872-0.727,2.077-1.091,3.614-1.091c1.551,0,2.762,0.364,3.635,1.091c0.879,0.72,1.318,1.72,1.318,3.001
	c0,0.686-0.148,1.281-0.446,1.787c-0.298,0.498-0.744,0.9-1.34,1.205c0.728,0.339,1.274,0.81,1.641,1.412
	c0.367,0.596,0.551,1.323,0.551,2.181c0,1.447-0.478,2.583-1.434,3.406c-0.948,0.824-2.257,1.236-3.925,1.236
	c-1.689,0-3.002-0.409-3.937-1.226s-1.401-1.956-1.401-3.417c0-0.852,0.173-1.565,0.519-2.14
	C433.375,41.091,433.929,40.606,434.684,40.219"/>
<path id="path2690" fill="#010101" d="M441.704,6.145c-0.956,1.564-1.665,3.157-2.129,4.777s-0.696,3.32-0.696,5.099
	c0,1.772,0.232,3.469,0.696,5.089s1.173,3.212,2.129,4.777h-2.191c-1.212-1.655-2.133-3.316-2.763-4.985
	c-0.623-1.676-0.935-3.303-0.935-4.881s0.312-3.206,0.935-4.881c0.63-1.676,1.551-3.341,2.763-4.995H441.704"/>
<path id="path2688" fill="#010101" d="M493.287,38.329c0-0.852-0.215-1.523-0.644-2.015c-0.423-0.499-1.001-0.748-1.734-0.748
	c-0.692,0-1.232,0.239-1.62,0.717c-0.381,0.478-0.571,1.146-0.571,2.004c0,0.803,0.2,1.43,0.603,1.879
	c0.401,0.45,0.966,0.675,1.692,0.675c0.713,0,1.271-0.222,1.672-0.665C493.086,39.734,493.287,39.118,493.287,38.329
	 M493.339,42.202c-0.346,0.346-0.755,0.606-1.226,0.779c-0.471,0.173-1,0.26-1.589,0.26c-1.461,0-2.631-0.439-3.51-1.319
	c-0.88-0.879-1.319-2.056-1.319-3.531c0-1.564,0.478-2.828,1.434-3.791c0.955-0.962,2.215-1.443,3.78-1.443
	c1.813,0,3.191,0.626,4.133,1.88c0.948,1.246,1.423,3.067,1.423,5.462c0,2.576-0.505,4.549-1.517,5.919
	c-1.011,1.371-2.464,2.056-4.361,2.056c-1.309,0-2.364-0.339-3.168-1.018c-0.803-0.686-1.242-1.617-1.318-2.793l3.001,0.01
	c0.069,0.478,0.257,0.834,0.562,1.07c0.304,0.235,0.733,0.353,1.287,0.353c0.748,0,1.319-0.325,1.714-0.976
	S493.283,43.497,493.339,42.202 M487.357,6.145h2.212c1.204,1.647,2.118,3.309,2.741,4.985c0.623,1.668,0.935,3.299,0.935,4.891
	c0,1.585-0.312,3.216-0.935,4.892s-1.537,3.333-2.741,4.975h-2.212c0.962-1.572,1.675-3.167,2.139-4.788
	c0.471-1.627,0.707-3.32,0.707-5.079c0-1.765-0.236-3.458-0.707-5.078C489.032,9.323,488.319,7.723,487.357,6.145"/>
<path id="text5187" fill="#010101" d="M605.335,183.855h10.634v2.119h-10.634V183.855 M607.733,203.308v-2.846h5.837v2.846H607.733"
	/>
<path id="path2706" fill="#010101" d="M677.371,88.52h2.099v5.296h5.172v2.067h-5.172v5.317h-2.099v-5.317H672.2v-2.067h5.171V88.52
	"/>
<path id="path2694" fill="#010101" d="M541.952,40.8c0,1.807,0.18,3.119,0.54,3.936c0.367,0.817,0.948,1.225,1.744,1.225
	c0.797,0,1.378-0.412,1.745-1.236c0.367-0.824,0.551-2.132,0.551-3.925c0-1.8-0.184-3.109-0.551-3.926s-0.948-1.226-1.745-1.226
	c-0.796,0-1.377,0.409-1.744,1.226C542.132,37.685,541.952,38.993,541.952,40.8 M538.867,40.8c0-2.555,0.443-4.466,1.33-5.733
	c0.893-1.274,2.239-1.911,4.039-1.911c1.794,0,3.137,0.64,4.03,1.921c0.899,1.274,1.35,3.188,1.35,5.743s-0.446,4.462-1.34,5.722
	c-0.886,1.26-2.232,1.89-4.04,1.89c-1.8,0-3.146-0.633-4.039-1.9C539.311,45.266,538.867,43.355,538.867,40.8 M538.867,16.291
	h12.442v2.067h-12.442V16.291 M538.867,11.826h12.442v2.066h-12.442V11.826"/>
<path id="text5427" fill="#010101" d="M10.311,85.223v-8.377H7.285v-1.821h8.128v1.821h-3.005v8.377H10.311 M20.758,84.288
	c-0.254,0.392-0.586,0.692-0.997,0.9c-0.411,0.202-0.889,0.304-1.433,0.304c-0.729,0-1.293-0.208-1.689-0.623
	c-0.393-0.415-0.589-1.006-0.589-1.772c0-0.711,0.196-1.253,0.589-1.627c0.396-0.374,1.05-0.63,1.959-0.769
	c0.208-0.033,0.48-0.069,0.817-0.111c0.854-0.11,1.281-0.358,1.281-0.741c0-0.305-0.095-0.521-0.284-0.651
	c-0.189-0.134-0.506-0.201-0.949-0.201c-0.406,0-0.718,0.081-0.935,0.243c-0.217,0.161-0.326,0.392-0.326,0.692v0.111H16.32v-0.138
	c0-0.771,0.272-1.376,0.817-1.814c0.544-0.443,1.297-0.665,2.257-0.665c1.052,0,1.858,0.182,2.417,0.547
	c0.563,0.364,0.845,0.891,0.845,1.579v4.278c0,0.313,0.032,0.549,0.097,0.707c0.064,0.152,0.173,0.267,0.325,0.346v0.339h-2.098
	c-0.069-0.129-0.123-0.272-0.159-0.429C20.784,84.636,20.763,84.468,20.758,84.288 M20.724,81.519
	c-0.328,0.152-0.707,0.274-1.136,0.367c-0.424,0.092-0.644,0.14-0.658,0.146c-0.355,0.101-0.604,0.229-0.748,0.381
	c-0.139,0.152-0.208,0.362-0.208,0.63c0,0.277,0.09,0.499,0.27,0.665c0.18,0.161,0.422,0.242,0.727,0.242
	c0.545,0,0.972-0.152,1.281-0.457c0.314-0.31,0.471-0.73,0.471-1.26V81.519 M24.462,75.024h1.959v3.607
	c0.25-0.393,0.561-0.688,0.935-0.886c0.379-0.204,0.808-0.305,1.288-0.305c0.909,0,1.652,0.375,2.229,1.128
	c0.577,0.748,0.866,1.721,0.866,2.922c0,1.191-0.289,2.153-0.866,2.887c-0.577,0.734-1.329,1.101-2.257,1.101
	c-0.485,0-0.907-0.102-1.267-0.305c-0.355-0.203-0.678-0.526-0.969-0.969v1.018h-1.918V75.024 M29.738,81.408
	c0-0.692-0.146-1.235-0.436-1.627c-0.291-0.397-0.69-0.596-1.198-0.596c-0.536,0-0.951,0.194-1.247,0.582
	c-0.291,0.383-0.436,0.93-0.436,1.641c0,0.766,0.139,1.347,0.416,1.745c0.282,0.396,0.69,0.595,1.226,0.595
	c0.544,0,0.96-0.199,1.246-0.595C29.595,82.751,29.738,82.169,29.738,81.408"/>
<path id="text5207" fill="#010101" d="M700.394,39.82h2.485c0.587,0,1.013-0.106,1.281-0.318c0.269-0.213,0.401-0.547,0.401-1.004
	c0-0.476-0.131-0.817-0.395-1.024c-0.263-0.213-0.697-0.319-1.302-0.319h-2.472V39.82 M700.394,35.41h2.396
	c0.518,0,0.896-0.088,1.136-0.263c0.24-0.18,0.36-0.462,0.36-0.844c0-0.374-0.118-0.644-0.354-0.81
	c-0.23-0.171-0.616-0.256-1.156-0.256h-2.382V35.41 M698.386,41.662V31.464h4.805c1.044,0,1.837,0.222,2.382,0.665
	c0.549,0.438,0.824,1.078,0.824,1.918c0,0.517-0.103,0.948-0.305,1.294s-0.507,0.614-0.914,0.803
	c0.526,0.212,0.919,0.52,1.177,0.921c0.264,0.396,0.396,0.893,0.396,1.489c0,0.992-0.324,1.758-0.97,2.298s-1.563,0.81-2.749,0.81
	H698.386 M712.523,40.728c-0.254,0.392-0.587,0.692-0.997,0.9c-0.41,0.203-0.888,0.305-1.433,0.305
	c-0.729,0-1.293-0.208-1.689-0.623c-0.393-0.416-0.589-1.006-0.589-1.772c0-0.711,0.196-1.253,0.589-1.627
	c0.396-0.374,1.051-0.63,1.959-0.769c0.208-0.033,0.479-0.069,0.817-0.111c0.854-0.111,1.28-0.358,1.28-0.741
	c0-0.305-0.095-0.522-0.283-0.651c-0.188-0.134-0.506-0.201-0.948-0.201c-0.407,0-0.719,0.081-0.936,0.242
	c-0.216,0.161-0.325,0.392-0.325,0.692v0.111h-1.883v-0.139c0-0.771,0.271-1.376,0.816-1.814c0.546-0.443,1.297-0.665,2.258-0.665
	c1.052,0,1.856,0.182,2.416,0.547c0.563,0.365,0.845,0.891,0.845,1.579v4.279c0,0.313,0.033,0.549,0.097,0.706
	c0.064,0.152,0.173,0.268,0.325,0.346v0.339h-2.098c-0.069-0.13-0.123-0.272-0.159-0.429
	C712.55,41.075,712.529,40.908,712.523,40.728 M712.489,37.958c-0.327,0.152-0.706,0.274-1.136,0.367
	c-0.424,0.092-0.644,0.14-0.657,0.145c-0.355,0.102-0.604,0.229-0.748,0.381c-0.139,0.152-0.208,0.362-0.208,0.63
	c0,0.277,0.09,0.499,0.271,0.665c0.18,0.161,0.422,0.242,0.727,0.242c0.545,0,0.972-0.152,1.281-0.457
	c0.313-0.31,0.471-0.729,0.471-1.26V37.958 M720.735,38.824h1.986c-0.083,0.955-0.431,1.71-1.045,2.264
	c-0.614,0.554-1.404,0.831-2.368,0.831c-1.094,0-1.952-0.356-2.575-1.066c-0.618-0.716-0.928-1.703-0.928-2.963
	c0-1.255,0.316-2.239,0.948-2.949c0.637-0.716,1.511-1.073,2.624-1.073c0.975,0,1.753,0.258,2.34,0.775
	c0.591,0.517,0.921,1.237,0.99,2.16h-2.001c-0.055-0.401-0.195-0.708-0.422-0.921c-0.227-0.213-0.524-0.318-0.894-0.318
	c-0.498,0-0.872,0.196-1.121,0.588c-0.244,0.392-0.367,0.981-0.367,1.766c0,0.725,0.126,1.283,0.381,1.675
	c0.258,0.388,0.628,0.582,1.107,0.582c0.374,0,0.674-0.114,0.9-0.339C720.519,39.607,720.666,39.271,720.735,38.824 M724.037,41.662
	V31.464h1.96v5.352l2.396-2.68h2.423l-2.624,2.791l2.783,4.735h-2.416l-1.8-3.206l-0.762,0.824v2.382H724.037 M731.438,39.211h2.008
	c0.02,0.382,0.157,0.669,0.416,0.858c0.258,0.184,0.646,0.277,1.163,0.277c0.393,0,0.693-0.065,0.906-0.194
	c0.217-0.134,0.326-0.321,0.326-0.561c0-0.342-0.402-0.598-1.205-0.768c-0.327-0.069-0.589-0.13-0.782-0.18
	c-0.979-0.249-1.66-0.545-2.043-0.886c-0.379-0.342-0.567-0.803-0.567-1.385c0-0.771,0.277-1.38,0.831-1.828
	c0.559-0.453,1.313-0.679,2.264-0.679c1.006,0,1.795,0.224,2.368,0.672c0.576,0.447,0.884,1.077,0.921,1.89h-1.96
	c-0.014-0.319-0.137-0.566-0.366-0.741c-0.228-0.175-0.542-0.263-0.949-0.263c-0.382,0-0.67,0.057-0.858,0.173
	c-0.185,0.115-0.276,0.288-0.276,0.52c0,0.299,0.5,0.565,1.502,0.796c0.23,0.05,0.414,0.092,0.547,0.125
	c1.002,0.235,1.685,0.52,2.05,0.852c0.368,0.333,0.554,0.801,0.554,1.406c0,0.853-0.303,1.504-0.907,1.952
	c-0.601,0.448-1.475,0.672-2.624,0.672c-1.038,0-1.851-0.234-2.437-0.699c-0.587-0.467-0.88-1.108-0.88-1.925V39.211
	 M744.933,37.944c0-0.757-0.144-1.334-0.43-1.731c-0.285-0.401-0.701-0.603-1.246-0.603c-0.535,0-0.943,0.198-1.226,0.596
	c-0.276,0.396-0.415,0.976-0.415,1.738c0,0.71,0.146,1.26,0.437,1.647c0.296,0.388,0.711,0.582,1.246,0.582
	c0.507,0,0.906-0.199,1.197-0.596C744.787,39.181,744.933,38.637,744.933,37.944 M739.657,44.681V34.136h1.917v1.018
	c0.291-0.443,0.615-0.767,0.97-0.97c0.36-0.203,0.782-0.304,1.267-0.304c0.928,0,1.681,0.367,2.258,1.101
	c0.576,0.729,0.865,1.689,0.865,2.88c0,1.205-0.289,2.183-0.865,2.936c-0.577,0.748-1.321,1.122-2.229,1.122
	c-0.479,0-0.909-0.102-1.288-0.305c-0.374-0.204-0.686-0.499-0.935-0.886v3.953H739.657 M752.624,40.728
	c-0.254,0.392-0.586,0.692-0.996,0.9c-0.411,0.203-0.889,0.305-1.434,0.305c-0.729,0-1.293-0.208-1.689-0.623
	c-0.393-0.416-0.589-1.006-0.589-1.772c0-0.711,0.196-1.253,0.589-1.627c0.396-0.374,1.051-0.63,1.959-0.769
	c0.208-0.033,0.479-0.069,0.817-0.111c0.854-0.111,1.281-0.358,1.281-0.741c0-0.305-0.096-0.522-0.284-0.651
	c-0.188-0.134-0.506-0.201-0.948-0.201c-0.407,0-0.719,0.081-0.935,0.242c-0.217,0.161-0.326,0.392-0.326,0.692v0.111h-1.883v-0.139
	c0-0.771,0.271-1.376,0.817-1.814c0.545-0.443,1.296-0.665,2.257-0.665c1.052,0,1.857,0.182,2.416,0.547
	c0.563,0.365,0.845,0.891,0.845,1.579v4.279c0,0.313,0.033,0.549,0.097,0.706c0.064,0.152,0.173,0.268,0.325,0.346v0.339h-2.098
	c-0.069-0.13-0.123-0.272-0.159-0.429C752.65,41.075,752.63,40.908,752.624,40.728 M752.59,37.958
	c-0.327,0.152-0.706,0.274-1.136,0.367c-0.424,0.092-0.644,0.14-0.657,0.145c-0.355,0.102-0.604,0.229-0.748,0.381
	c-0.139,0.152-0.208,0.362-0.208,0.63c0,0.277,0.091,0.499,0.271,0.665c0.18,0.161,0.422,0.242,0.727,0.242
	c0.546,0,0.972-0.152,1.281-0.457c0.313-0.31,0.471-0.729,0.471-1.26V37.958 M760.836,38.824h1.986
	c-0.083,0.955-0.431,1.71-1.045,2.264c-0.614,0.554-1.404,0.831-2.368,0.831c-1.094,0-1.952-0.356-2.575-1.066
	c-0.618-0.716-0.928-1.703-0.928-2.963c0-1.255,0.316-2.239,0.948-2.949c0.637-0.716,1.511-1.073,2.624-1.073
	c0.975,0,1.754,0.258,2.34,0.775c0.591,0.517,0.921,1.237,0.99,2.16h-2.001c-0.055-0.401-0.195-0.708-0.422-0.921
	c-0.227-0.213-0.524-0.318-0.894-0.318c-0.498,0-0.872,0.196-1.121,0.588c-0.244,0.392-0.367,0.981-0.367,1.766
	c0,0.725,0.126,1.283,0.381,1.675c0.258,0.388,0.628,0.582,1.107,0.582c0.374,0,0.674-0.114,0.9-0.339
	C760.619,39.607,760.767,39.271,760.836,38.824 M768.735,39.377h2.008c-0.202,0.793-0.614,1.417-1.232,1.869
	c-0.614,0.448-1.364,0.672-2.25,0.672c-1.089,0-1.952-0.365-2.59-1.094c-0.637-0.734-0.955-1.727-0.955-2.977
	c0-1.232,0.313-2.204,0.941-2.915c0.629-0.711,1.487-1.066,2.576-1.066c1.154,0,2.044,0.351,2.672,1.053
	c0.629,0.696,0.941,1.691,0.941,2.984c0,0.143-0.001,0.251-0.007,0.325c0,0.069-0.005,0.136-0.014,0.201H765.8
	c0.027,0.59,0.171,1.036,0.43,1.336c0.263,0.299,0.639,0.45,1.128,0.45c0.347,0,0.63-0.068,0.852-0.201
	C768.431,39.876,768.605,39.663,768.735,39.377 M765.8,37.106h2.963c-0.019-0.508-0.153-0.893-0.408-1.156
	c-0.249-0.268-0.609-0.401-1.08-0.401c-0.438,0-0.784,0.133-1.038,0.401C765.986,36.218,765.842,36.603,765.8,37.106"/>
<path id="path5439" fill="none" stroke="#010101" stroke-width="3" d="M744.912,16.139h-38.085"/>
<path id="path5441" fill="#010101" d="M711.679,22.785V9.492l-13.293,6.646L711.679,22.785z"/>
<g id="g5459" transform="translate(0,7.5)">
	<path id="path5453" fill="none" stroke="#010101" stroke-width="3" d="M73.612,66.112H48.373"/>
	<path id="path5455" fill="#010101" d="M53.672,72.759V59.466l-13.293,6.646L53.672,72.759z"/>
	<path id="path5457" fill="none" stroke="#010101" stroke-width="3" d="M40.379,59.466c0,13.293,0,13.293,0,13.293"/>
</g>
<g id="g5464" transform="matrix(-1,9.581637e-17,-9.581637e-17,-1,127.5,172.5)">
	<path id="path5466" fill="none" stroke="#010101" stroke-width="3" d="M87.121,85.595H61.882"/>
	<path id="path5468" fill="#010101" d="M67.181,92.241V78.948l-13.293,6.646L67.181,92.241z"/>
	<path id="path5470" fill="none" stroke="#010101" stroke-width="3" d="M53.888,78.948c0,13.293,0,13.293,0,13.293"/>
</g>
<path id="text5474" fill="#010101" d="M95.379,71.894l-1.62-1.579l1.724-1.786l1.662,1.62c0.222-0.416,0.391-0.89,0.509-1.423
	s0.177-1.115,0.177-1.745c0-1.683-0.377-2.988-1.132-3.916c-0.755-0.935-1.811-1.402-3.167-1.402c-1.343,0-2.389,0.464-3.137,1.392
	c-0.748,0.928-1.122,2.236-1.122,3.926c0,1.682,0.374,2.991,1.122,3.925c0.748,0.928,1.793,1.392,3.137,1.392
	c0.346,0,0.671-0.035,0.976-0.104C94.818,72.125,95.109,72.025,95.379,71.894 M97.591,73.981c-0.52,0.346-1.125,0.609-1.817,0.789
	c-0.686,0.18-1.433,0.27-2.243,0.27c-2.285,0-4.103-0.727-5.453-2.181c-1.343-1.454-2.015-3.414-2.015-5.878
	c0-2.472,0.672-4.431,2.015-5.878c1.35-1.454,3.167-2.181,5.453-2.181c2.285,0,4.102,0.727,5.452,2.181
	c1.357,1.454,2.036,3.414,2.036,5.878c0,1.08-0.139,2.07-0.416,2.97c-0.277,0.893-0.686,1.675-1.226,2.347l1.662,1.589l-1.703,1.787
	L97.591,73.981"/>
<path id="text5482" fill="#010101" d="M141.354,74.614l-4.383-15.297h3.261l2.617,10.791l2.212-10.791h3.354l2.212,10.791
	l2.617-10.791h3.229l-4.372,15.297h-3.001L146.734,62.9l-2.378,11.714H141.354"/>
<path id="text5492" fill="#010101" d="M194.158,74.614V59.317h11.102v2.659h-7.997v3.261h7.311v2.617h-7.311v3.936h8.371v2.825
	H194.158"/>
<path id="text5500" fill="#010101" d="M249.911,66.005h3.697c0.803,0,1.392-0.163,1.766-0.488c0.381-0.326,0.571-0.838,0.571-1.537
	c0-0.665-0.184-1.167-0.551-1.506c-0.367-0.346-0.914-0.519-1.641-0.519h-3.843V66.005 M246.764,74.614V59.317h7.415
	c1.668,0,2.904,0.356,3.708,1.07c0.803,0.713,1.205,1.804,1.205,3.271c0,0.935-0.197,1.713-0.592,2.336
	c-0.388,0.623-0.949,1.049-1.683,1.277c0.665,0.235,1.136,0.596,1.413,1.08c0.284,0.485,0.446,1.239,0.488,2.264l0.063,1.807
	c0,0.014,0,0.034,0,0.062c0.021,0.914,0.218,1.468,0.592,1.662v0.467h-3.448c-0.111-0.214-0.197-0.478-0.26-0.789
	c-0.055-0.318-0.09-0.696-0.104-1.132l-0.042-1.61c-0.035-0.949-0.215-1.589-0.54-1.921c-0.319-0.332-0.897-0.499-1.734-0.499
	h-3.334v5.951H246.764"/>
<path id="text5504" fill="#010101" d="M304.682,74.614V62.048h-4.539v-2.731h12.192v2.731h-4.507v12.566H304.682"/>
<path id="text5518" fill="#010101" d="M361.245,74.614h-3.146v-5.701l-5.556-9.596h3.853l3.271,6.595l3.022-6.595h3.593
	l-5.037,9.596V74.614"/>
<path id="text5522" fill="#010101" d="M406.456,59.083h3.179v9.596c0,1.184,0.235,2.049,0.706,2.596
	c0.471,0.54,1.218,0.81,2.243,0.81c1.038,0,1.793-0.27,2.264-0.81c0.478-0.54,0.717-1.405,0.717-2.596v-9.596h3.146v9.938
	c0,1.876-0.526,3.316-1.578,4.32c-1.046,1.004-2.555,1.506-4.528,1.506c-1.987,0-3.51-0.499-4.569-1.496
	c-1.053-1.004-1.579-2.447-1.579-4.331V59.083"/>
<path id="text5526" fill="#010101" d="M464.183,74.614V59.317h3.146v15.297H464.183"/>
<path id="text5530" fill="#010101" d="M514.66,66.966c0,1.682,0.373,2.991,1.121,3.925c0.748,0.928,1.793,1.392,3.137,1.392
	c1.356,0,2.412-0.464,3.167-1.392c0.755-0.935,1.132-2.243,1.132-3.925c0-1.683-0.377-2.988-1.132-3.916
	c-0.755-0.935-1.811-1.402-3.167-1.402c-1.344,0-2.389,0.464-3.137,1.392S514.66,65.276,514.66,66.966 M511.451,66.966
	c0-2.472,0.671-4.431,2.015-5.878c1.35-1.454,3.167-2.181,5.452-2.181c2.284,0,4.102,0.727,5.452,2.181
	c1.356,1.454,2.035,3.413,2.035,5.878s-0.679,4.424-2.035,5.878c-1.351,1.454-3.168,2.181-5.452,2.181
	c-2.285,0-4.103-0.727-5.452-2.181C512.122,71.39,511.451,69.431,511.451,66.966"/>
<path id="text5534" fill="#010101" d="M569.421,66.4h3.043c0.824,0,1.423-0.173,1.797-0.52c0.374-0.353,0.561-0.917,0.561-1.693
	c0-0.727-0.184-1.277-0.551-1.651c-0.366-0.374-0.914-0.561-1.641-0.561h-3.209V66.4 M569.4,69.172v5.442h-3.146V59.317h6.802
	c1.606,0,2.821,0.419,3.646,1.257c0.831,0.831,1.246,2.053,1.246,3.666c0,1.579-0.405,2.797-1.215,3.655
	c-0.811,0.852-1.967,1.277-3.469,1.277H569.4"/>
<path id="path2717" fill="#BA539F" d="M651.121,59.151v2.17c-0.063,0-0.148-0.003-0.26-0.01c-0.11-0.007-0.187-0.01-0.229-0.01
	c-0.699,0-1.173,0.135-1.423,0.405c-0.242,0.263-0.363,0.824-0.363,1.683v2.492c0,1.025-0.155,1.751-0.467,2.181
	c-0.312,0.429-0.873,0.737-1.683,0.924c0.81,0.187,1.371,0.491,1.683,0.914s0.467,1.146,0.467,2.17v2.503
	c0,0.852,0.121,1.409,0.363,1.672c0.243,0.263,0.717,0.395,1.423,0.395c0.042,0,0.118-0.003,0.229-0.011
	c0.111-0.007,0.197-0.01,0.26-0.01v2.17c-0.097,0-0.231,0.003-0.405,0.011c-0.173,0.007-0.301,0.01-0.384,0.01
	c-0.692,0-1.271-0.042-1.734-0.125s-0.858-0.211-1.184-0.384c-0.395-0.235-0.676-0.554-0.842-0.956
	c-0.159-0.395-0.238-1.083-0.238-2.067v-2.617c0-0.949-0.177-1.62-0.53-2.015c-0.353-0.402-0.948-0.603-1.786-0.603
	c-0.041,0-0.11,0.003-0.207,0.01c-0.098,0.007-0.17,0.01-0.219,0.01v-2.17c0.049,0,0.121,0.003,0.219,0.011
	c0.097,0.007,0.166,0.01,0.207,0.01c0.831,0,1.423-0.201,1.776-0.603c0.359-0.401,0.54-1.08,0.54-2.035v-2.597
	c0-0.99,0.079-1.686,0.238-2.087c0.166-0.401,0.447-0.72,0.842-0.955c0.325-0.173,0.72-0.301,1.184-0.384
	c0.464-0.083,1.042-0.125,1.734-0.125c0.083,0,0.211,0.003,0.384,0.011C650.89,59.147,651.024,59.151,651.121,59.151"/>
<path id="text5546" fill="#3A53A4" d="M646.486,81.559h5.244v2.212h-2.44v15.401h2.44v2.212h-5.244V81.559"/>
<path id="path2721" fill="#BA539F" d="M700.254,59.7h0.706c0.762,0,1.374,0.042,1.838,0.125c0.464,0.083,0.852,0.214,1.163,0.395
	c0.395,0.222,0.672,0.54,0.831,0.956c0.166,0.408,0.249,1.094,0.249,2.056v2.617c0,0.948,0.177,1.624,0.53,2.025
	c0.353,0.395,0.948,0.592,1.786,0.592c0.041,0,0.11-0.003,0.207-0.01c0.098-0.007,0.17-0.01,0.219-0.01v2.17h-0.385
	c-0.865,0-1.475,0.194-1.827,0.582c-0.354,0.388-0.53,1.059-0.53,2.015v2.617c0,0.99-0.083,1.686-0.249,2.087
	c-0.159,0.401-0.437,0.713-0.831,0.935c-0.325,0.173-0.72,0.301-1.184,0.384s-1.042,0.125-1.734,0.125
	c-0.083,0-0.211-0.003-0.385-0.01c-0.173-0.007-0.308-0.01-0.404-0.01v-2.17c0.063,0,0.148,0.003,0.26,0.01
	c0.11,0.007,0.187,0.01,0.229,0.01c0.699,0,1.17-0.135,1.412-0.405c0.249-0.263,0.374-0.817,0.374-1.662V72.64
	c0-1.038,0.155-1.769,0.467-2.191c0.312-0.429,0.872-0.734,1.683-0.914c-0.811-0.187-1.371-0.495-1.683-0.924
	s-0.467-1.156-0.467-2.181v-2.513c0-0.845-0.125-1.399-0.374-1.662c-0.242-0.27-0.713-0.405-1.412-0.405
	c-0.042,0-0.118,0.003-0.229,0.01c-0.111,0.007-0.197,0.011-0.26,0.011V59.7"/>
<path id="text5554" fill="#3A53A4" d="M705.563,81.548v19.825h-5.255v-2.212h2.451V83.76h-2.451v-2.212H705.563"/>
<g id="g5770" transform="translate(0,3.75)">
	<text transform="matrix(1 0 0 1 10.8647 123.5264)" fill="#010101" font-family="'Arial-BoldMT'" font-size="14.1793">Caps Lock</text>
	<path id="path5584" fill="#010101" d="M23.763,126.357l-9.97,13.293h6.646v6.646h6.646v-6.646h6.646L23.763,126.357z
		 M22.849,130.096h1.8l2.77,7.644h-1.662l-0.526-1.578h-2.963l-0.499,1.578h-1.662L22.849,130.096z M23.763,131.619l-1.08,3.24
		h2.133L23.763,131.619z"/>
</g>
<path id="text5641" fill="#010101" d="M106.818,115.553l-2.119,6.511h4.248L106.818,115.553 M104.991,112.489h3.635l5.515,15.297
	h-3.303l-1.039-3.146h-5.93l-1.007,3.146h-3.313L104.991,112.489"/>
<path id="text5645" fill="#010101" d="M153.796,123.056h3.105c0.118,0.838,0.46,1.461,1.028,1.869
	c0.568,0.402,1.388,0.603,2.461,0.603c0.914,0,1.603-0.163,2.066-0.488c0.464-0.325,0.696-0.806,0.696-1.443
	c0-0.928-1.333-1.696-3.998-2.306c-0.035-0.007-0.066-0.014-0.094-0.021c-0.069-0.014-0.176-0.038-0.322-0.073
	c-1.426-0.312-2.444-0.661-3.053-1.049c-0.54-0.346-0.952-0.81-1.236-1.392c-0.284-0.588-0.426-1.281-0.426-2.077
	c0-1.489,0.505-2.627,1.516-3.417c1.011-0.796,2.472-1.194,4.382-1.194c1.787,0,3.182,0.422,4.186,1.267
	c1.011,0.845,1.544,2.036,1.599,3.573h-3.022c-0.055-0.741-0.339-1.305-0.852-1.693s-1.243-0.582-2.191-0.582
	c-0.824,0-1.461,0.163-1.911,0.488c-0.443,0.318-0.665,0.775-0.665,1.371c0,0.81,0.869,1.416,2.606,1.817
	c0.471,0.11,0.838,0.197,1.101,0.259c1.115,0.284,1.904,0.505,2.368,0.665c0.471,0.159,0.879,0.336,1.226,0.53
	c0.623,0.346,1.09,0.807,1.402,1.381c0.312,0.567,0.467,1.25,0.467,2.046c0,1.592-0.537,2.828-1.61,3.708
	c-1.073,0.872-2.586,1.308-4.538,1.308c-1.925,0-3.434-0.446-4.528-1.339C154.467,125.974,153.879,124.704,153.796,123.056"/>
<path id="text5649" fill="#010101" d="M209.788,125.024h2.523c1.461,0,2.517-0.381,3.167-1.143c0.658-0.769,0.987-2.011,0.987-3.729
	c0-1.71-0.305-2.966-0.914-3.769c-0.609-0.803-1.561-1.205-2.856-1.205h-2.908V125.024 M206.703,127.786v-15.297h5.992
	c2.347,0,4.095,0.633,5.245,1.9c1.156,1.267,1.734,3.188,1.734,5.763c0,1.399-0.214,2.631-0.644,3.697
	c-0.422,1.066-1.038,1.925-1.849,2.576c-0.609,0.484-1.301,0.834-2.077,1.049c-0.775,0.208-1.863,0.312-3.261,0.312H206.703"/>
<path id="text5653" fill="#010101" d="M261.023,127.786v-15.297h10.676v2.659h-7.571v3.468h6.636v2.658h-6.636v6.512H261.023"/>
<path id="text5657" fill="#010101" d="M324.124,125.963c-0.568,0.769-1.215,1.333-1.942,1.693c-0.72,0.36-1.569,0.54-2.545,0.54
	c-2.14,0-3.874-0.741-5.203-2.222c-1.322-1.489-1.983-3.441-1.983-5.857c0-2.437,0.661-4.386,1.983-5.846
	c1.322-1.461,3.084-2.191,5.286-2.191c1.918,0,3.483,0.46,4.694,1.381c1.212,0.914,1.932,2.174,2.16,3.78h-3.209
	c-0.194-0.796-0.592-1.402-1.194-1.817c-0.595-0.415-1.375-0.623-2.337-0.623c-1.281,0-2.288,0.471-3.022,1.413
	c-0.727,0.935-1.091,2.229-1.091,3.883c0,1.662,0.381,2.963,1.143,3.905c0.762,0.941,1.807,1.412,3.136,1.412
	c0.997,0,1.832-0.294,2.503-0.883c0.671-0.588,1.087-1.395,1.246-2.419h-3.469v-2.617h6.335v8.277h-2.108L324.124,125.963"/>
<path id="text5661" fill="#010101" d="M366.381,127.786v-15.297h3.167v5.701h6.314v-5.701h3.167v15.297h-3.167v-6.781h-6.314v6.781
	H366.381"/>
<path id="text5665" fill="#010101" d="M420.985,121.872h3.043v1.849c0,0.533,0.159,0.942,0.478,1.226
	c0.318,0.277,0.775,0.416,1.371,0.416c0.65,0,1.104-0.17,1.36-0.509c0.256-0.339,0.384-0.977,0.384-1.911v-10.665h3.147v10.811
	c0,0.969-0.06,1.682-0.177,2.139c-0.111,0.45-0.298,0.848-0.561,1.194c-0.402,0.512-0.952,0.904-1.651,1.174
	s-1.521,0.405-2.462,0.405c-0.865,0-1.63-0.118-2.295-0.353c-0.664-0.235-1.219-0.585-1.661-1.049
	c-0.354-0.374-0.606-0.79-0.759-1.247c-0.146-0.464-0.218-1.225-0.218-2.285V121.872"/>
<path id="text5669" fill="#010101" d="M472.247,127.786v-15.297h3.146v6.283l5.972-6.283h3.936l-6.106,6.189l6.657,9.108h-3.843
	l-4.985-7l-1.63,1.62v5.379H472.247"/>
<path id="text5673" fill="#010101" d="M526.914,127.786v-15.297h3.146v12.472h7.468v2.825H526.914"/>
<path id="text5679" fill="#010101" d="M127.36,180.958V178.3l8.318-9.866h-8.152v-2.772H139.5v2.658l-8.339,9.877h8.152v2.762
	H127.36"/>
<path id="text5683" fill="#010101" d="M179.842,180.958l4.809-7.81l-4.809-7.487h3.635l3.126,5.349l3.105-5.349h3.655l-4.808,7.467
	l4.808,7.83h-3.635l-3.126-5.296l-3.126,5.296H179.842"/>
<path id="text5687" fill="#010101" d="M246.754,175.688c-0.118,1.738-0.79,3.119-2.015,4.145c-1.219,1.024-2.811,1.536-4.777,1.536
	c-2.264,0-4.026-0.706-5.286-2.118c-1.253-1.412-1.88-3.393-1.88-5.94c0-2.604,0.641-4.597,1.921-5.981s3.123-2.077,5.525-2.077
	c1.953,0,3.493,0.478,4.622,1.433c1.135,0.949,1.758,2.292,1.869,4.029h-3.105c-0.132-0.865-0.485-1.522-1.06-1.973
	c-0.575-0.457-1.35-0.686-2.326-0.686c-1.385,0-2.437,0.446-3.157,1.34c-0.72,0.893-1.08,2.198-1.08,3.915
	c0,1.662,0.357,2.946,1.07,3.853c0.72,0.907,1.741,1.361,3.063,1.361c0.956,0,1.738-0.243,2.347-0.728
	c0.609-0.491,1.004-1.194,1.184-2.108H246.754"/>
<path id="text5691" fill="#010101" d="M291.472,180.958l-5.276-15.297h3.489l3.251,11.444l3.313-11.444h3.448l-5.213,15.297H291.472
	"/>
<path id="text5695" fill="#010101" d="M342.858,178.196h3.728c0.879,0,1.52-0.159,1.921-0.479c0.402-0.318,0.603-0.82,0.603-1.506
	c0-0.713-0.197-1.225-0.592-1.536c-0.395-0.319-1.045-0.479-1.952-0.479h-3.708V178.196 M342.858,171.58h3.593
	c0.775,0,1.343-0.131,1.703-0.395c0.36-0.27,0.54-0.692,0.54-1.267c0-0.561-0.177-0.966-0.53-1.215
	c-0.346-0.257-0.924-0.385-1.734-0.385h-3.572V171.58 M339.847,180.958v-15.297h7.207c1.565,0,2.756,0.332,3.573,0.997
	c0.824,0.657,1.236,1.616,1.236,2.876c0,0.776-0.152,1.423-0.457,1.942s-0.762,0.921-1.371,1.205
	c0.789,0.318,1.377,0.778,1.765,1.381c0.395,0.596,0.592,1.34,0.592,2.232c0,1.489-0.485,2.639-1.454,3.448
	c-0.969,0.811-2.344,1.215-4.123,1.215H339.847"/>
<path id="text5699" fill="#010101" d="M392.987,180.958v-15.297h3.292l6.21,10.51v-10.51h3.105v15.297h-3.251l-6.252-10.51v10.51
	H392.987"/>
<path id="text5703" fill="#010101" d="M444.777,180.958v-15.297h4.653l3.043,11.642l3.001-11.642h4.673v15.297h-2.949v-12.337
	l-3.104,12.337h-3.22l-3.146-12.337v12.337H444.777"/>
<path id="path2750" fill="#010101" d="M557.234,173.003v-3.146h3.146v3.146H557.234 M557.234,180.958v-3.126h3.146v3.126H557.234"/>
<path id="path2746" fill="#010101" d="M504.082,173.003v-3.146h3.126v3.146H504.082 M504.082,184.552v-1.215
	c0.582-0.167,1.012-0.423,1.288-0.769c0.277-0.347,0.415-0.797,0.415-1.351v-0.26h-1.724v-3.126h3.146v3.002
	c0,1.038-0.263,1.869-0.789,2.492C505.893,183.956,505.114,184.364,504.082,184.552"/>
<path id="path2633" fill="#3A53A4" d="M612.147,147.116c-0.381,0.582-0.82,1.011-1.319,1.288c-0.498,0.27-1.087,0.405-1.766,0.405
	c-1.094,0-1.928-0.298-2.502-0.894c-0.568-0.596-0.852-1.475-0.852-2.638c0-1.654,0.48-3.043,1.443-4.164
	c0.969-1.122,2.16-1.683,3.572-1.683c0.554,0,1.035,0.114,1.443,0.343s0.744,0.567,1.008,1.018l0.55-1.018h1.849l-1.526,6.21
	c-0.021,0.076-0.038,0.156-0.052,0.239c-0.014,0.076-0.021,0.138-0.021,0.187c0,0.242,0.083,0.426,0.249,0.551
	c0.166,0.117,0.412,0.177,0.737,0.177c0.27,0,0.55-0.069,0.841-0.208c0.298-0.139,0.575-0.332,0.831-0.582
	c0.596-0.554,1.046-1.201,1.35-1.941c0.312-0.741,0.468-1.555,0.468-2.44c0-1.662-0.644-3.026-1.932-4.092
	c-1.281-1.073-2.936-1.61-4.964-1.61c-0.977,0-1.887,0.118-2.731,0.354c-0.838,0.235-1.6-0.302-2.285,0.162
	c-1.177,0.79-2.084,2.662-2.721,3.847c-0.63,1.184-0.945,2.481-0.945,3.895c0,2.125,0.717,3.825,2.15,5.099
	c1.433,1.268,3.348,1.9,5.743,1.9c1.121,0,2.215-0.169,3.281-0.509c1.073-0.339,2.07-0.831,2.991-1.475l0.852,1.215
	c-1.06,0.797-2.185,1.396-3.375,1.797c-1.185,0.401-2.42,0.603-3.708,0.603c-1.329,0-2.551-0.17-3.666-0.509
	c-1.114-0.333-2.104-0.827-2.97-1.485c-1.073-0.838-1.877-1.804-2.41-2.897c-0.532-1.094-0.799-2.333-0.799-3.718
	c0-1.156,0.18-2.257,0.54-3.303c0.366-1.052,0.903-2.008,1.609-2.866c1.024-1.253,2.257-2.201,3.697-2.846
	c1.439-0.644,3.043-0.966,4.809-0.966c1.17,0,2.267,0.159,3.292,0.478c1.031,0.312,1.928,0.755,2.689,1.33
	c0.935,0.727,1.631,1.558,2.087,2.492c0.464,0.928,0.696,1.977,0.696,3.146c0,1.143-0.229,2.198-0.686,3.168
	c-0.45,0.962-1.101,1.786-1.952,2.472c-0.484,0.388-1.015,0.686-1.589,0.893c-0.568,0.201-1.16,0.302-1.776,0.302
	c-0.733,0-1.287-0.146-1.661-0.437C612.352,148.113,612.161,147.685,612.147,147.116 M612.667,142.672
	c-0.091-0.562-0.291-0.987-0.603-1.277c-0.305-0.298-0.71-0.447-1.215-0.447c-0.79,0-1.476,0.43-2.057,1.288
	c-0.582,0.858-0.872,1.891-0.872,3.095c0,0.637,0.138,1.122,0.415,1.454c0.284,0.332,0.692,0.498,1.226,0.498
	c0.574,0,1.098-0.218,1.568-0.654c0.478-0.436,0.803-1.004,0.976-1.703L612.667,142.672"/>
<path id="text5731" fill="#010101" d="M597.701,33.094h1.994V38.9h-1.994V33.094"/>
<g id="g10181" transform="translate(73.5,-60)">
	<text transform="matrix(1 0 0 1 675.4443 131.937)" fill="#010101" font-family="'Arial-BoldMT'" font-size="14.1793">Enter</text>
	<path id="path5745" fill="#010101" d="M690.021,160.198v-13.293l-13.293,6.646L690.021,160.198z"/>
	<path id="path5747" fill="none" stroke="#010101" stroke-width="3" d="M709.962,140.259v13.293h-26.587"/>
</g>
<g id="g5790">
	<text transform="matrix(1 0 0 1 12.9414 178.8008)" fill="#010101" font-family="'Arial-BoldMT'" font-size="14.1793">Shift</text>
	<path id="path5757" fill="none" stroke="#010101" stroke-width="2" d="M24.649,184.055l-9.97,13.293h6.646v6.646h6.646v-6.646
		h6.646L24.649,184.055z"/>
</g>
<g id="g5795" transform="translate(727.5,0)">
	<text transform="matrix(1 0 0 1 -69.8457 178.8008)" fill="#010101" font-family="'Arial-BoldMT'" font-size="14.1793">Shift</text>
	<path id="path5801" fill="none" stroke="#010101" stroke-width="2" d="M-58.137,184.055l-9.97,13.293h6.646v6.646h6.646v-6.646
		h6.646L-58.137,184.055z"/>
</g>
<path id="path2737" fill="#010101" d="M86.375,195.145v2.274l-9.274,3.791l9.274,3.779v2.274l-12.233-5.036v-2.067L86.375,195.145"
	/>
<path id="text5803" fill="#010101" d="M504.057,211.138v-1.215c0.581-0.166,1.011-0.423,1.288-0.769
	c0.276-0.347,0.415-0.796,0.415-1.351v-0.259h-1.703v-3.126h3.146v3.001c0,1.031-0.267,1.862-0.8,2.492
	C505.877,210.542,505.095,210.951,504.057,211.138"/>
<path id="path2742" fill="#010101" d="M74.142,168.559l12.233,5.016v2.067l-12.233,5.036v-2.274l9.294-3.78l-9.294-3.79V168.559"/>
<path id="text5813" fill="#010101" d="M557.229,207.545v-3.126h3.126v3.126H557.229"/>
<path id="path3575" fill="#010101" d="M597.313,16.997c0-0.076-0.004-0.176-0.011-0.301c-0.007-0.132-0.011-0.229-0.011-0.291
	c0-0.609,0.066-1.115,0.197-1.516c0.132-0.409,0.343-0.79,0.634-1.143c0.222-0.263,0.551-0.564,0.986-0.903
	c0.443-0.339,0.73-0.585,0.862-0.737c0.277-0.312,0.468-0.592,0.571-0.841c0.104-0.249,0.155-0.522,0.155-0.82
	c0-0.658-0.183-1.17-0.55-1.537c-0.367-0.367-0.88-0.55-1.537-0.55c-0.658,0-1.177,0.222-1.558,0.665
	c-0.374,0.436-0.578,1.052-0.613,1.849h-2.929v-0.322c0-1.461,0.461-2.624,1.382-3.49c0.928-0.872,2.174-1.309,3.738-1.309
	c1.6,0,2.87,0.412,3.812,1.236c0.948,0.817,1.423,1.915,1.423,3.292c0,0.484-0.056,0.92-0.166,1.308
	c-0.104,0.381-0.267,0.73-0.488,1.049c-0.284,0.401-0.724,0.837-1.319,1.308c-0.588,0.464-0.944,0.751-1.069,0.862
	c-0.263,0.256-0.453,0.526-0.571,0.81c-0.11,0.284-0.166,0.623-0.166,1.018c0,0.035,0.004,0.094,0.011,0.177s0.01,0.145,0.01,0.187
	H597.313 M597.167,21.442v-3.043h3.063v3.043H597.167"/>
<path id="text5819" fill="#010101" d="M382.732,23.416l5.151-17.666h1.423l-5.172,17.666H382.732"/>
<path id="text5827" fill="#010101" d="M16.452,241.36c-0.079,1.158-0.526,2.079-1.343,2.763c-0.812,0.684-1.874,1.024-3.185,1.024
	c-1.509,0-2.684-0.471-3.524-1.412c-0.835-0.941-1.253-2.263-1.253-3.96c0-1.736,0.427-3.065,1.281-3.988
	c0.854-0.923,2.082-1.385,3.683-1.385c1.302,0,2.329,0.318,3.081,0.955c0.757,0.632,1.172,1.528,1.247,2.687h-2.07
	c-0.088-0.576-0.323-1.016-0.706-1.315c-0.383-0.305-0.9-0.457-1.551-0.457c-0.923,0-1.625,0.298-2.104,0.894
	c-0.48,0.595-0.72,1.466-0.72,2.61c0,1.107,0.238,1.964,0.713,2.568c0.48,0.604,1.161,0.906,2.042,0.906
	c0.637,0,1.158-0.16,1.564-0.484c0.406-0.327,0.669-0.796,0.79-1.405H16.452 M21.298,244.919c-0.185,0.005-0.406,0.013-0.665,0.021
	c-0.254,0.015-0.416,0.021-0.484,0.021c-0.771,0-1.3-0.144-1.585-0.43c-0.282-0.291-0.422-0.86-0.422-1.71v-4.071h-0.997v-1.412
	h0.997v-2.057h1.994v2.057h1.163v1.412h-1.163v4.168c0,0.199,0.044,0.331,0.132,0.395c0.088,0.061,0.268,0.09,0.54,0.09h0.491
	V244.919 M22.468,244.863v-7.525h1.869v1.288c0.263-0.518,0.57-0.896,0.921-1.136c0.351-0.244,0.769-0.367,1.253-0.367
	c0.079,0,0.139,0.002,0.18,0.007c0.046,0,0.083,0.002,0.111,0.007l0.007,2.043h-0.671c-0.549,0-0.962,0.144-1.239,0.429
	c-0.277,0.286-0.416,0.712-0.416,1.274v3.98H22.468 M27.993,244.863v-10.198h2.015v10.198H27.993"/>
<path id="text5831" fill="#010101" d="M144.923,236.67l-1.412,4.341h2.832L144.923,236.67 M143.705,234.627h2.423l3.677,10.198
	h-2.202l-0.692-2.098h-3.954l-0.671,2.098h-2.208L143.705,234.627 M150.746,244.825v-10.198h2.015v10.198H150.746 M157.926,244.881
	c-0.185,0.005-0.406,0.013-0.665,0.021c-0.254,0.015-0.416,0.021-0.485,0.021c-0.771,0-1.299-0.144-1.585-0.43
	c-0.282-0.291-0.422-0.86-0.422-1.71v-4.071h-0.997V237.3h0.997v-2.057h1.994v2.057h1.163v1.412h-1.163v4.168
	c0,0.199,0.043,0.331,0.131,0.395c0.088,0.061,0.268,0.091,0.54,0.091h0.492V244.881"/>
<path id="text5835" fill="#3A53A4" d="M543.714,236.708l-1.412,4.341h2.832L543.714,236.708 M542.495,234.665h2.424l3.676,10.198
	h-2.201l-0.692-2.098h-3.953l-0.672,2.098h-2.209L542.495,234.665 M549.537,244.863v-10.198h2.015v10.198H549.537 M556.717,244.919
	c-0.184,0.005-0.405,0.013-0.665,0.021c-0.253,0.015-0.415,0.021-0.484,0.021c-0.771,0-1.299-0.144-1.586-0.43
	c-0.28-0.291-0.422-0.86-0.422-1.71v-4.071h-0.997v-1.412h0.997v-2.057h1.993v2.057h1.164v1.412h-1.164v4.168
	c0,0.199,0.046,0.331,0.132,0.395c0.089,0.061,0.269,0.09,0.54,0.09h0.492V244.919 M569.441,243.659
	c-0.377,0.512-0.81,0.888-1.294,1.128c-0.479,0.241-1.046,0.36-1.696,0.36c-1.427,0-2.583-0.493-3.469-1.481
	c-0.881-0.992-1.322-2.294-1.322-3.905c0-1.625,0.441-2.923,1.322-3.897c0.883-0.975,2.056-1.461,3.523-1.461
	c1.279,0,2.323,0.307,3.13,0.921c0.809,0.609,1.287,1.448,1.439,2.521h-2.139c-0.128-0.532-0.395-0.936-0.797-1.212
	c-0.396-0.277-0.915-0.416-1.558-0.416c-0.854,0-1.524,0.313-2.015,0.942c-0.484,0.623-0.727,1.486-0.727,2.589
	c0,1.108,0.254,1.975,0.762,2.604c0.509,0.628,1.204,0.941,2.091,0.941c0.664,0,1.222-0.195,1.668-0.589
	c0.448-0.393,0.726-0.929,0.831-1.612h-2.313v-1.745h4.224v5.518h-1.405L569.441,243.659 M572.952,244.863v-7.525h1.869v1.288
	c0.263-0.518,0.571-0.896,0.921-1.136c0.352-0.244,0.769-0.367,1.253-0.367c0.08,0,0.139,0.002,0.18,0.007
	c0.047,0,0.083,0.002,0.111,0.007l0.007,2.043h-0.672c-0.549,0-0.962,0.144-1.239,0.429c-0.276,0.286-0.415,0.712-0.415,1.274v3.98
	H572.952"/>
<path id="text5839" fill="#010101" d="M734.277,241.36c-0.078,1.158-0.526,2.079-1.343,2.763c-0.813,0.684-1.875,1.024-3.186,1.024
	c-1.509,0-2.685-0.471-3.523-1.412c-0.836-0.941-1.254-2.263-1.254-3.96c0-1.736,0.428-3.065,1.281-3.988s2.082-1.385,3.684-1.385
	c1.302,0,2.328,0.318,3.081,0.955c0.756,0.632,1.172,1.528,1.246,2.687h-2.07c-0.088-0.576-0.324-1.016-0.706-1.315
	c-0.383-0.305-0.9-0.457-1.551-0.457c-0.923,0-1.626,0.298-2.105,0.894c-0.479,0.595-0.72,1.466-0.72,2.61
	c0,1.107,0.237,1.964,0.713,2.568c0.479,0.604,1.162,0.906,2.043,0.906c0.637,0,1.158-0.16,1.564-0.484
	c0.407-0.327,0.67-0.796,0.789-1.405H734.277 M739.124,244.919c-0.186,0.005-0.407,0.013-0.665,0.021
	c-0.254,0.015-0.415,0.021-0.484,0.021c-0.771,0-1.3-0.144-1.586-0.43c-0.282-0.291-0.422-0.86-0.422-1.71v-4.071h-0.997v-1.412
	h0.997v-2.057h1.994v2.057h1.163v1.412h-1.163v4.168c0,0.199,0.043,0.331,0.131,0.395c0.089,0.061,0.269,0.09,0.54,0.09h0.492
	V244.919 M740.294,244.863v-7.525h1.869v1.288c0.263-0.518,0.569-0.896,0.921-1.136c0.352-0.244,0.769-0.367,1.253-0.367
	c0.078,0,0.139,0.002,0.18,0.007c0.047,0,0.084,0.002,0.111,0.007l0.007,2.043h-0.672c-0.549,0-0.962,0.144-1.239,0.429
	c-0.276,0.286-0.415,0.712-0.415,1.274v3.98H740.294 M745.818,244.863v-10.198h2.015v10.198H745.818"/>
<path id="text5872" fill="#010101" d="M97.048,234.475l-2.922-10.198H96.3l1.745,7.194l1.475-7.194h2.236l1.475,7.194l1.745-7.194
	h2.153l-2.915,10.198h-2.001l-1.579-7.81l-1.585,7.81H97.048 M108.174,226.111v-1.835h2.015v1.835H108.174 M108.174,234.475v-7.525
	h2.015v7.525H108.174 M111.981,234.475v-7.525h1.973v0.894c0.282-0.365,0.614-0.638,0.997-0.817c0.383-0.186,0.81-0.277,1.281-0.277
	c0.831,0,1.452,0.217,1.863,0.651c0.415,0.429,0.623,1.078,0.623,1.945v5.13h-2.015v-4.548c0-0.54-0.092-0.927-0.277-1.156
	c-0.18-0.23-0.475-0.347-0.886-0.347c-0.476,0-0.852,0.144-1.128,0.43c-0.277,0.282-0.416,0.666-0.416,1.156v4.465H111.981
	 M95.012,252.199v-10.198h2.098v4.188l3.981-4.188h2.624l-4.071,4.126l4.438,6.072h-2.562l-3.324-4.667l-1.087,1.08v3.587H95.012
	 M109.448,249.914h2.008c-0.203,0.795-0.614,1.418-1.232,1.869c-0.614,0.449-1.364,0.672-2.25,0.672
	c-1.089,0-1.952-0.365-2.589-1.094c-0.637-0.734-0.956-1.726-0.956-2.978c0-1.231,0.313-2.203,0.941-2.914
	c0.628-0.712,1.486-1.066,2.576-1.066c1.154,0,2.044,0.352,2.672,1.053c0.628,0.697,0.941,1.69,0.941,2.983
	c0,0.144-0.002,0.251-0.007,0.325c0,0.069-0.005,0.137-0.014,0.201h-5.026c0.027,0.59,0.171,1.037,0.429,1.336
	c0.263,0.3,0.639,0.45,1.128,0.45c0.346,0,0.63-0.067,0.852-0.2C109.143,250.413,109.318,250.2,109.448,249.914 M106.512,247.644
	h2.963c-0.019-0.507-0.154-0.894-0.408-1.156c-0.25-0.269-0.609-0.401-1.08-0.401c-0.438,0-0.785,0.133-1.039,0.401
	C106.699,246.756,106.554,247.14,106.512,247.644 M113.193,255.218v-1.627c0.064,0.009,0.131,0.016,0.201,0.021
	s0.159,0.007,0.27,0.007c0.396,0,0.694-0.095,0.893-0.283c0.199-0.186,0.298-0.464,0.298-0.838c0-0.028-0.005-0.063-0.014-0.104
	c-0.009-0.041-0.019-0.076-0.027-0.104l-2.714-7.616h2.216l1.585,5.429l1.544-5.429h2.119l-3.095,8.876
	c-0.23,0.665-0.519,1.117-0.865,1.357c-0.346,0.244-0.865,0.367-1.558,0.367c-0.125,0-0.258-0.006-0.402-0.015
	C113.5,255.251,113.35,255.236,113.193,255.218"/>
<path id="text5878" fill="#010101" d="M628.771,234.475l-2.922-10.198h2.174l1.745,7.194l1.475-7.194h2.236l1.475,7.194l1.745-7.194
	h2.153l-2.915,10.198h-2.001l-1.578-7.81l-1.586,7.81H628.771 M639.896,226.111v-1.835h2.015v1.835H639.896 M639.896,234.475v-7.525
	h2.015v7.525H639.896 M643.704,234.475v-7.525h1.974v0.894c0.282-0.365,0.614-0.638,0.997-0.817c0.383-0.186,0.81-0.277,1.28-0.277
	c0.831,0,1.452,0.217,1.863,0.651c0.415,0.429,0.623,1.078,0.623,1.945v5.13h-2.015v-4.548c0-0.54-0.092-0.927-0.277-1.156
	c-0.18-0.23-0.476-0.347-0.887-0.347c-0.476,0-0.852,0.144-1.128,0.43c-0.277,0.282-0.416,0.666-0.416,1.156v4.465H643.704
	 M626.735,252.199v-10.198h2.098v4.188l3.98-4.188h2.624l-4.07,4.126l4.438,6.072h-2.562l-3.323-4.667l-1.087,1.08v3.587H626.735
	 M641.171,249.914h2.008c-0.203,0.795-0.615,1.418-1.232,1.869c-0.615,0.449-1.364,0.672-2.25,0.672
	c-1.089,0-1.953-0.365-2.59-1.094c-0.637-0.734-0.955-1.726-0.955-2.978c0-1.231,0.313-2.203,0.941-2.914
	c0.628-0.712,1.486-1.066,2.575-1.066c1.154,0,2.044,0.352,2.673,1.053c0.628,0.697,0.941,1.69,0.941,2.983
	c0,0.144-0.002,0.251-0.007,0.325c0,0.069-0.005,0.137-0.014,0.201h-5.026c0.027,0.59,0.171,1.037,0.429,1.336
	c0.264,0.3,0.639,0.45,1.129,0.45c0.346,0,0.63-0.067,0.852-0.2C640.866,250.413,641.041,250.2,641.171,249.914 M638.235,247.644
	h2.963c-0.02-0.507-0.154-0.894-0.408-1.156c-0.25-0.269-0.609-0.401-1.08-0.401c-0.438,0-0.784,0.133-1.039,0.401
	C638.422,246.756,638.276,247.14,638.235,247.644 M644.916,255.218v-1.627c0.064,0.009,0.132,0.016,0.201,0.021
	s0.159,0.007,0.27,0.007c0.396,0,0.694-0.095,0.894-0.283c0.199-0.186,0.298-0.464,0.298-0.838c0-0.028-0.006-0.063-0.015-0.104
	c-0.008-0.041-0.019-0.076-0.027-0.104l-2.714-7.616h2.216l1.585,5.429l1.544-5.429h2.119l-3.096,8.876
	c-0.229,0.665-0.519,1.117-0.865,1.357c-0.346,0.244-0.865,0.367-1.558,0.367c-0.124,0-0.258-0.006-0.401-0.015
	C645.223,255.251,645.073,255.236,644.916,255.218"/>
<path id="text5884" fill="#010101" d="M674.002,244.746v-10.198h3.102l2.028,7.761l2.001-7.761h3.115v10.198h-1.966v-8.226
	l-2.07,8.226h-2.146l-2.098-8.226v8.226H674.002 M690.847,242.461h2.008c-0.203,0.795-0.615,1.418-1.232,1.869
	c-0.614,0.449-1.364,0.672-2.25,0.672c-1.089,0-1.953-0.365-2.59-1.094c-0.637-0.733-0.955-1.726-0.955-2.977
	c0-1.232,0.313-2.204,0.941-2.915c0.628-0.712,1.486-1.066,2.575-1.066c1.154,0,2.044,0.352,2.673,1.053
	c0.628,0.697,0.941,1.69,0.941,2.983c0,0.144-0.002,0.251-0.007,0.325c0,0.069-0.005,0.137-0.014,0.201h-5.026
	c0.027,0.59,0.171,1.037,0.429,1.336c0.264,0.3,0.639,0.45,1.129,0.45c0.346,0,0.63-0.067,0.852-0.2
	C690.542,242.96,690.717,242.747,690.847,242.461 M687.911,240.19h2.963c-0.019-0.507-0.154-0.894-0.408-1.156
	c-0.249-0.269-0.609-0.401-1.08-0.401c-0.438,0-0.784,0.133-1.039,0.401C688.098,239.303,687.952,239.687,687.911,240.19
	 M694.294,244.746v-7.526h1.974v0.894c0.282-0.365,0.614-0.637,0.997-0.817c0.382-0.185,0.81-0.276,1.28-0.276
	c0.831,0,1.452,0.216,1.862,0.65c0.416,0.43,0.624,1.078,0.624,1.945v5.131h-2.016v-4.549c0-0.54-0.091-0.926-0.276-1.156
	c-0.18-0.23-0.477-0.346-0.887-0.346c-0.476,0-0.852,0.144-1.128,0.429c-0.277,0.282-0.416,0.666-0.416,1.156v4.466H694.294
	 M709.478,237.22v7.526h-1.974v-0.894c-0.285,0.365-0.621,0.639-1.004,0.824c-0.379,0.18-0.805,0.27-1.28,0.27
	c-0.826,0-1.447-0.216-1.862-0.65c-0.41-0.435-0.616-1.082-0.616-1.945v-5.131h2.015v4.549c0,0.535,0.09,0.919,0.27,1.149
	c0.181,0.227,0.478,0.34,0.894,0.34c0.471,0,0.845-0.141,1.121-0.423c0.282-0.285,0.423-0.673,0.423-1.163v-4.452H709.478"/>
<path id="text5928" fill="#3A53A4" d="M233.377,69.359c-0.118,1.738-0.789,3.119-2.015,4.144c-1.218,1.025-2.811,1.537-4.777,1.537
	c-2.264,0-4.026-0.706-5.286-2.119c-1.253-1.412-1.88-3.392-1.88-5.94c0-2.604,0.641-4.597,1.921-5.982s3.123-2.077,5.525-2.077
	c1.952,0,3.493,0.478,4.621,1.433c1.136,0.949,1.759,2.292,1.87,4.029h-3.105c-0.131-0.865-0.484-1.523-1.059-1.973
	c-0.575-0.457-1.35-0.685-2.326-0.685c-1.385,0-2.437,0.446-3.157,1.339s-1.08,2.198-1.08,3.916c0,1.662,0.356,2.946,1.07,3.853
	c0.72,0.907,1.741,1.361,3.063,1.361c0.956,0,1.738-0.243,2.347-0.727c0.609-0.492,1.004-1.194,1.184-2.108H233.377"/>
<path id="text5956" fill="#3A53A4" d="M216.52,67.7h10.08l-0.641,1.239h-10.08L216.52,67.7 M217.904,65.022h10.08l-0.641,1.239
	h-10.08L217.904,65.022"/>
<path id="text6955" fill="#010101" d="M330.303,43.303c0,0.852,0.211,1.526,0.633,2.025c0.429,0.499,1.011,0.748,1.745,0.748
	c0.686,0,1.222-0.242,1.61-0.727c0.388-0.485,0.582-1.16,0.582-2.025c0-0.796-0.201-1.416-0.602-1.859
	c-0.402-0.443-0.966-0.665-1.693-0.665c-0.713,0-1.271,0.222-1.672,0.665C330.503,41.908,330.303,42.521,330.303,43.303
	 M330.261,39.419c0.339-0.346,0.748-0.606,1.225-0.779c0.478-0.18,1.011-0.27,1.6-0.27c1.454,0,2.617,0.443,3.489,1.329
	c0.879,0.886,1.319,2.067,1.319,3.542c0,1.565-0.478,2.828-1.433,3.791c-0.955,0.962-2.215,1.443-3.78,1.443
	c-1.807,0-3.181-0.623-4.123-1.869c-0.935-1.246-1.402-3.07-1.402-5.473c0-2.582,0.502-4.556,1.506-5.919
	c1.004-1.371,2.451-2.056,4.341-2.056c1.315,0,2.375,0.343,3.178,1.028c0.81,0.686,1.253,1.613,1.329,2.784h-3.012
	c-0.069-0.478-0.256-0.838-0.561-1.08c-0.305-0.243-0.73-0.364-1.277-0.364c-0.748,0-1.322,0.326-1.724,0.976
	C330.535,37.145,330.31,38.117,330.261,39.419 M0.5,0.5"/>
<path id="text10146" fill="#010101" d="M12.729,17.204h2.14v7.872h-2.14V17.204 M12.729,6.57h2.14v7.872h-2.14V6.57"/>
<path id="path2640" fill="#3A53A4" d="M662.594,144.565l-0.914,2.534h2.606l0.894-2.534H662.594 M662.594,138.168h2.295l-1.517,4.31
	h2.514l1.537-4.31h2.295l-1.537,4.31h2.939l-0.769,2.088h-2.908l-0.872,2.513h3.012l-0.737,2.077h-3.022l-1.537,4.32h-2.295
	l1.537-4.32h-2.534l-1.548,4.32h-2.284l1.516-4.32h-2.98l0.79-2.077h2.929l0.893-2.513h-3.105l0.769-2.088h3.085L662.594,138.168"/>
<path id="path2733" fill="#010101" d="M15.605,50l-5.151-17.665h1.402L17.027,50H15.605"/>
<path id="path3564" fill="#010101" d="M692.544,123.423c0.277-0.16,0.485-0.336,0.623-0.53c0.139-0.194,0.208-0.402,0.208-0.623
	c0-0.27-0.079-0.499-0.238-0.686c-0.159-0.194-0.488-0.419-0.987-0.675l-2.752-1.422c-0.27,0.159-0.478,0.339-0.623,0.54
	c-0.139,0.201-0.208,0.415-0.208,0.644c0,0.27,0.101,0.509,0.302,0.717c0.208,0.201,0.661,0.481,1.36,0.841L692.544,123.423
	 M686.895,126.818h2.565c0.056,0.54,0.215,0.942,0.478,1.205c0.271,0.263,0.651,0.395,1.143,0.395c0.457,0,0.82-0.107,1.091-0.322
	c0.27-0.222,0.404-0.52,0.404-0.894c0-0.304-0.1-0.567-0.301-0.789c-0.201-0.229-0.599-0.488-1.194-0.779l-2.482-1.257
	c-0.789-0.395-1.378-0.848-1.766-1.36s-0.581-1.087-0.581-1.724c0-0.616,0.148-1.156,0.446-1.62c0.305-0.471,0.751-0.862,1.34-1.174
	c-0.346-0.311-0.603-0.65-0.769-1.017c-0.166-0.374-0.249-0.786-0.249-1.236c0-1.039,0.356-1.873,1.069-2.503
	c0.713-0.637,1.662-0.956,2.846-0.956c1.219,0,2.174,0.312,2.866,0.935s1.049,1.485,1.07,2.586h-2.451
	c-0.014-0.464-0.152-0.817-0.416-1.059c-0.256-0.242-0.626-0.364-1.11-0.364c-0.43,0-0.762,0.094-0.997,0.281
	c-0.229,0.187-0.343,0.45-0.343,0.789c0,0.277,0.135,0.537,0.404,0.779c0.277,0.235,0.772,0.52,1.485,0.852l1.745,0.81
	c0.886,0.422,1.54,0.894,1.963,1.413c0.422,0.512,0.633,1.104,0.633,1.776c0,0.63-0.159,1.181-0.478,1.651
	c-0.312,0.464-0.762,0.824-1.35,1.08c0.401,0.353,0.702,0.744,0.903,1.173c0.2,0.429,0.301,0.9,0.301,1.413
	c0,1.066-0.381,1.945-1.142,2.638c-0.762,0.699-1.742,1.049-2.939,1.049c-1.315,0-2.326-0.318-3.032-0.956
	C687.342,128.996,686.957,128.058,686.895,126.818"/>
<path id="text5928_1_" fill="#3A53A4" d="M314.261,16.177c-0.118,1.738-0.789,3.119-2.015,4.144
	c-1.218,1.024-2.811,1.537-4.777,1.537c-2.264,0-4.026-0.706-5.286-2.118c-1.253-1.413-1.88-3.393-1.88-5.94
	c0-2.604,0.641-4.597,1.921-5.982s3.123-2.077,5.525-2.077c1.952,0,3.493,0.478,4.621,1.433c1.136,0.949,1.759,2.292,1.87,4.029
	h-3.105c-0.131-0.865-0.484-1.523-1.059-1.973c-0.575-0.457-1.35-0.685-2.326-0.685c-1.385,0-2.437,0.446-3.157,1.339
	s-1.08,2.198-1.08,3.916c0,1.662,0.356,2.946,1.07,3.853c0.72,0.907,1.741,1.361,3.063,1.361c0.956,0,1.738-0.243,2.347-0.727
	c0.609-0.492,1.004-1.194,1.184-2.108H314.261"/>
<path id="text5956_1_" fill="#3A53A4" d="M297.404,14.519h10.08l-0.641,1.239h-10.08L297.404,14.519 M298.788,11.841h10.08
	l-0.641,1.24h-10.08L298.788,11.841"/>
<g>
	<path fill="#010101" d="M648.549,13.748l2.35-4.992h1.393l2.288,4.992h-1.772l-1.239-3.055l-1.231,3.055H648.549z"/>
</g>
<g>
	<path fill="#010101" d="M624.28,68.916l2.423,0.401c-0.312,0.889-0.804,1.566-1.477,2.031c-0.672,0.465-1.514,0.697-2.524,0.697
		c-1.6,0-2.782-0.522-3.55-1.567c-0.606-0.837-0.91-1.893-0.91-3.168c0-1.523,0.398-2.717,1.194-3.58
		c0.797-0.863,1.803-1.294,3.021-1.294c1.367,0,2.447,0.452,3.237,1.356c0.79,0.905,1.168,2.289,1.134,4.155h-6.093
		c0.017,0.721,0.214,1.282,0.589,1.683c0.376,0.401,0.844,0.602,1.404,0.602c0.381,0,0.702-0.104,0.962-0.312
		C623.95,69.712,624.147,69.377,624.28,68.916z M624.418,66.451c-0.017-0.705-0.199-1.242-0.546-1.609
		c-0.346-0.367-0.769-0.551-1.265-0.551c-0.532,0-0.972,0.194-1.317,0.581c-0.348,0.388-0.518,0.914-0.512,1.579H624.418z
		 M621.275,61.453l1.218-2.589h2.715l-2.41,2.589H621.275z"/>
</g>
<g>
	<path fill="#010101" d="M624.696,98.818l2.423,0.401c-0.312,0.89-0.804,1.566-1.477,2.031c-0.672,0.465-1.514,0.697-2.524,0.697
		c-1.599,0-2.782-0.522-3.55-1.567c-0.606-0.837-0.909-1.893-0.909-3.168c0-1.523,0.397-2.717,1.194-3.58
		c0.796-0.863,1.803-1.294,3.02-1.294c1.368,0,2.447,0.452,3.237,1.356s1.168,2.289,1.134,4.155h-6.093
		c0.018,0.721,0.214,1.283,0.589,1.683c0.376,0.401,0.844,0.602,1.404,0.602c0.382,0,0.702-0.104,0.962-0.312
		S624.563,99.28,624.696,98.818z M624.488,91.355h-1.523l-2.409-2.589h2.714L624.488,91.355z M624.835,96.354
		c-0.018-0.705-0.2-1.242-0.547-1.609c-0.346-0.367-0.769-0.551-1.265-0.551c-0.531,0-0.972,0.194-1.317,0.581
		c-0.347,0.388-0.518,0.914-0.512,1.579H624.835z"/>
</g>
<g>
	<path fill="#010101" d="M579.015,148.253c0-0.808,0.198-1.59,0.597-2.347c0.398-0.755,0.962-1.332,1.692-1.731
		c0.729-0.398,1.544-0.597,2.444-0.597c1.391,0,2.529,0.451,3.419,1.354c0.889,0.904,1.332,2.045,1.332,3.424
		c0,1.391-0.449,2.545-1.346,3.459c-0.897,0.915-2.026,1.372-3.388,1.372c-0.842,0-1.646-0.19-2.41-0.571
		c-0.766-0.381-1.346-0.938-1.744-1.676C579.213,150.205,579.015,149.31,579.015,148.253z M585.356,142.595h-1.523l-2.409-2.59
		h2.714L585.356,142.595z M581.507,148.383c0,0.913,0.216,1.612,0.648,2.097c0.433,0.485,0.966,0.728,1.599,0.728
		c0.634,0,1.166-0.242,1.596-0.728c0.429-0.484,0.644-1.189,0.644-2.114c0-0.9-0.215-1.594-0.644-2.08
		c-0.43-0.484-0.962-0.728-1.596-0.728c-0.633,0-1.166,0.243-1.599,0.728C581.723,146.771,581.507,147.471,581.507,148.383z"/>
</g>
<g>
	<path fill="#010101" d="M587.289,116.084l-2.396,0.429c-0.081-0.472-0.265-0.828-0.551-1.067s-0.657-0.358-1.113-0.358
		c-0.606,0-1.089,0.209-1.451,0.628c-0.36,0.419-0.541,1.119-0.541,2.102c0,1.091,0.183,1.863,0.55,2.313
		c0.366,0.451,0.857,0.676,1.475,0.676c0.461,0,0.839-0.131,1.133-0.393s0.502-0.712,0.623-1.352l2.396,0.402
		c-0.248,1.096-0.724,1.924-1.427,2.484c-0.704,0.56-1.647,0.839-2.829,0.839c-1.344,0-2.416-0.424-3.214-1.273
		c-0.799-0.848-1.198-2.022-1.198-3.523c0-1.518,0.4-2.7,1.202-3.545c0.802-0.846,1.885-1.269,3.251-1.269
		c1.118,0,2.007,0.24,2.668,0.718C586.526,114.374,587,115.104,587.289,116.084z M580.542,125.971v-1.023
		c0.595,0.063,1.14,0.095,1.636,0.095c0.513,0,0.894-0.092,1.142-0.276c0.19-0.139,0.286-0.317,0.286-0.536
		c0-0.196-0.089-0.365-0.269-0.51c-0.179-0.144-0.456-0.215-0.831-0.215c-0.369,0-0.746,0.058-1.133,0.173l0.225-0.865
		c0.449-0.157,0.933-0.236,1.451-0.236c0.72,0,1.268,0.159,1.643,0.477c0.374,0.318,0.562,0.706,0.562,1.163
		c0,0.509-0.207,0.923-0.622,1.24c-0.559,0.434-1.36,0.651-2.403,0.651C581.484,126.11,580.922,126.064,580.542,125.971z"/>
</g>
<g>
	<path fill="#010101" d="M654.075,37.209h-1.523l-2.409-2.589h2.714L654.075,37.209z M651.153,47.594v-9.208h2.438v9.208H651.153z"
		/>
</g>
<g>
	<path fill="#010101" d="M637.208,146.066l-2.188-0.401c0.249-0.89,0.676-1.548,1.284-1.976c0.606-0.428,1.508-0.642,2.705-0.642
		c1.087,0,1.896,0.128,2.429,0.386c0.531,0.257,0.905,0.583,1.122,0.978c0.217,0.396,0.325,1.122,0.325,2.178l-0.041,2.84
		c0,0.808,0.039,1.404,0.116,1.787c0.078,0.385,0.224,0.796,0.438,1.234h-2.409c-0.063-0.162-0.142-0.402-0.234-0.72
		c-0.04-0.145-0.069-0.24-0.086-0.287c-0.415,0.405-0.858,0.708-1.332,0.911c-0.473,0.202-0.977,0.304-1.513,0.304
		c-0.945,0-1.69-0.258-2.235-0.771c-0.545-0.514-0.817-1.162-0.817-1.946c0-0.52,0.124-0.982,0.371-1.39
		c0.249-0.406,0.596-0.717,1.042-0.934c0.447-0.216,1.091-0.405,1.932-0.566c1.136-0.214,1.923-0.413,2.36-0.598v-0.244
		c0-0.471-0.116-0.806-0.348-1.006c-0.232-0.2-0.669-0.301-1.313-0.301c-0.435,0-0.773,0.086-1.017,0.258
		C637.555,145.334,637.358,145.635,637.208,146.066z M640.531,142.064h-1.523l-2.409-2.589h2.714L640.531,142.064z M640.476,148.033
		c-0.311,0.104-0.803,0.228-1.475,0.372c-0.673,0.145-1.112,0.285-1.319,0.424c-0.315,0.225-0.474,0.511-0.474,0.856
		c0,0.341,0.126,0.635,0.379,0.883c0.253,0.249,0.575,0.372,0.966,0.372c0.437,0,0.854-0.145,1.25-0.433
		c0.293-0.219,0.486-0.487,0.578-0.805c0.063-0.208,0.095-0.604,0.095-1.186V148.033z"/>
</g>
<g>
	<path fill="#010101" d="M693.074,152.598v-1.376c-0.335,0.49-0.775,0.876-1.321,1.159c-0.546,0.282-1.122,0.424-1.728,0.424
		c-0.618,0-1.173-0.136-1.664-0.407c-0.49-0.271-0.845-0.653-1.065-1.145c-0.219-0.491-0.328-1.171-0.328-2.038v-5.826h2.437v4.231
		c0,1.295,0.044,2.088,0.135,2.38c0.089,0.292,0.252,0.522,0.487,0.693s0.535,0.256,0.898,0.256c0.414,0,0.786-0.114,1.114-0.343
		s0.553-0.511,0.673-0.85c0.121-0.338,0.182-1.166,0.182-2.483v-3.885h2.438v9.209H693.074z M692.714,142.212h-1.523l-2.409-2.589
		h2.714L692.714,142.212z"/>
</g>
<g>
	<path fill="#010101" d="M635.831,115.8c0-0.764,0.268-1.413,0.806-1.947c0.536-0.534,1.185-0.801,1.942-0.801
		c0.759,0,1.406,0.269,1.943,0.806c0.536,0.537,0.806,1.185,0.806,1.943c0,0.758-0.27,1.406-0.806,1.943
		c-0.537,0.538-1.185,0.806-1.943,0.806c-0.758,0-1.406-0.268-1.942-0.806C636.099,117.206,635.831,116.558,635.831,115.8z
		 M637.257,115.8c0,0.363,0.13,0.674,0.389,0.934c0.26,0.259,0.571,0.388,0.934,0.388c0.363,0,0.675-0.129,0.935-0.388
		c0.258-0.26,0.388-0.571,0.388-0.934c0-0.363-0.13-0.674-0.388-0.933c-0.26-0.259-0.571-0.389-0.935-0.389
		c-0.362,0-0.674,0.13-0.934,0.389C637.387,115.126,637.257,115.437,637.257,115.8z"/>
</g>
</svg>
